/* XPM */
static char *_12a3b7cdafc463ed10b1d91a9c1454bhGNyPFqqEi2OlP2J[] = {
/* columns rows colors chars-per-pixel */
"64 64 251 2 ",
"   c #2D1706",
".  c #381704",
"X  c #341A06",
"o  c #331C0A",
"O  c #3B1E09",
"+  c #3E200B",
"@  c #29221D",
"#  c #312217",
"$  c #1F2630",
"%  c #24282C",
"&  c #352D29",
"*  c #38302C",
"=  c #252C34",
"-  c #282F36",
";  c #282F39",
":  c #293036",
">  c #2D343C",
",  c #30373E",
"<  c #32393F",
"1  c #393939",
"2  c #471505",
"3  c #451907",
"4  c #4B1A06",
"5  c #48150C",
"6  c #441D09",
"7  c #4C1D0A",
"8  c #571A0A",
"9  c #511E0A",
"0  c #43220C",
"q  c #4B250E",
"w  c #53220A",
"e  c #59260D",
"r  c #5C2A0D",
"t  c #4F2710",
"y  c #562411",
"u  c #552B12",
"i  c #5C2C13",
"p  c #523214",
"a  c #5C3115",
"s  c #63270E",
"d  c #6A390D",
"f  c #713D0B",
"g  c #682912",
"h  c #792819",
"j  c #633315",
"k  c #6B3314",
"l  c #6D3A14",
"z  c #643518",
"x  c #6A3619",
"c  c #6B3A1A",
"v  c #763816",
"b  c #733D1B",
"n  c #433A33",
"m  c #7F3022",
"M  c #78470C",
"N  c #6B4718",
"B  c #7A431A",
"V  c #4F4A38",
"C  c #7B4421",
"Z  c #7C4723",
"A  c #6B5637",
"S  c #786533",
"D  c #2E3641",
"F  c #2C3746",
"G  c #2D3649",
"H  c #303741",
"J  c #343B44",
"K  c #393F45",
"L  c #363D49",
"P  c #383F49",
"I  c #3C4146",
"U  c #37414C",
"Y  c #3C434B",
"T  c #3E4651",
"R  c #3D4856",
"E  c #41464D",
"W  c #43484E",
"Q  c #484949",
"!  c #554F49",
"~  c #59574A",
"^  c #414751",
"/  c #414951",
"(  c #444B53",
")  c #494E55",
"_  c #464E59",
"`  c #484F58",
"'  c #4B5157",
"]  c #45515C",
"[  c #4B535B",
"{  c #50565D",
"}  c #525A59",
"|  c #6D5049",
" . c #586051",
".. c #746C4E",
"X. c #666953",
"o. c #4E5561",
"O. c #505761",
"+. c #535A63",
"@. c #585F68",
"#. c #5B6067",
"$. c #5B626A",
"%. c #676E6F",
"&. c #84301C",
"*. c #872F21",
"=. c #8A3425",
"-. c #953929",
";. c #AA3E2D",
":. c #8B500B",
">. c #89540A",
",. c #87481C",
"<. c #87561A",
"1. c #96591C",
"2. c #AD5713",
"3. c #936912",
"4. c #A36C09",
"5. c #A77505",
"6. c #B46E17",
"7. c #814621",
"8. c #844B23",
"9. c #8A4D23",
"0. c #944C22",
"q. c #8D5224",
"w. c #8D5329",
"e. c #945426",
"r. c #975827",
"t. c #9B5C2B",
"y. c #924D35",
"u. c #A25C28",
"i. c #AA4739",
"p. c #B74638",
"a. c #9B6527",
"s. c #997D28",
"d. c #85643A",
"f. c #976D37",
"g. c #AB642B",
"h. c #A6682C",
"j. c #B46B2E",
"k. c #A6762B",
"l. c #BB752E",
"z. c #A36531",
"x. c #A66832",
"c. c #AC6B33",
"v. c #B26F34",
"b. c #AB7736",
"n. c #B37234",
"m. c #B87636",
"M. c #BC7B36",
"N. c #BD7939",
"B. c #CC6C11",
"V. c #CA6A16",
"C. c #CD7619",
"Z. c #D3751D",
"A. c #D77C19",
"S. c #C04938",
"D. c #CA7625",
"F. c #D47B23",
"G. c #D87B21",
"H. c #C67C36",
"J. c #C37D3A",
"K. c #BA5345",
"L. c #92754A",
"P. c #A77A4F",
"I. c #C95B4A",
"U. c #D15947",
"Y. c #CE6151",
"T. c #D66654",
"R. c #E2644F",
"E. c #B78906",
"W. c #AA8517",
"Q. c #BB8535",
"!. c #B18D32",
"~. c #BDAF3E",
"^. c #C89805",
"/. c #CC8A15",
"(. c #D8861A",
"). c #E48816",
"_. c #E38D14",
"`. c #CFA20C",
"'. c #E4B11A",
"]. c #C78828",
"[. c #D98724",
"{. c #DD8B2A",
"}. c #DD9323",
"|. c #DA9729",
" X c #CA8237",
".X c #C6813A",
"XX c #C9823A",
"oX c #D58638",
"OX c #CB9A3A",
"+X c #D29A30",
"@X c #E38925",
"#X c #E69727",
"$X c #E3942B",
"%X c #E49B2B",
"&X c #F29C2B",
"*X c #E28A36",
"=X c #E79836",
"-X c #C9A537",
";X c #D8A632",
":X c #DBB63B",
">X c #E5A52B",
",X c #E5A836",
"<X c #F3AE31",
"1X c #E8B637",
"2X c #EBBC3C",
"3X c #F1BC3A",
"4X c #EBC53C",
"5X c #F2C43D",
"6X c #948A4C",
"7X c #9D9B5D",
"8X c #BE8A4B",
"9X c #BBB574",
"0X c #D39144",
"qX c #E39642",
"wX c #D1AD49",
"eX c #D8B744",
"rX c #E7AB4F",
"tX c #E9BA46",
"yX c #E7BA56",
"uX c #D2B668",
"iX c #E5BA61",
"pX c #D8C846",
"aX c #D6CC53",
"sX c #E7C74A",
"dX c #F4CD42",
"fX c #EED548",
"gX c #F5D849",
"hX c #EBC857",
"jX c #EAD257",
"kX c #F5D959",
"lX c #F7E74D",
"zX c #F9E44C",
"xX c #EFE652",
"cX c #FAED52",
"vX c #F8E858",
"bX c #FBF454",
"nX c #FEFA56",
"mX c #F9F35B",
"MX c #FEFD5B",
"NX c #D7CA7C",
"BX c #E9C664",
"VX c #EDCF6F",
"CX c #F3D764",
"ZX c #F9E867",
"AX c #FEFA64",
"SX c #F9E976",
"DX c #FEF978",
"FX c #F4DC85",
"GX c #FAEB87",
"HX c #FDF985",
"JX c #FDFA99",
/* pixels */
"I I ( U K K J L J Y O.( ( Y J K I D U W E W W W { J W ' < < I I U U ] #./ ) ) _ } R = U = , < D > > < U U > J K U K J > O.T Y Y ",
"I U ( I L L J Y J Y O.^ I U K J I < I Y W W W Q ' K ( ) > > > < I I { $.' ) ( ) { I : I = < D I I < < J H K Y U L J > > O.Y Y Y ",
"Y Y R J J L L Y < Y +.( W Y I I I J I W W W ) ) { L ( ' < > > < I U [ $.' ' ) _ } R - I - J U U U I D J > K K F J D > J #.Y Y E ",
"I T ( H J J L P H W +.( W W T I I I Y Q Q ) ) ) { I K W I J < < U D [ %.O.[ [ { $.Y = I > J Y I I I D < > > > > D K K H $.Q 1 E ",
"K Y ] Y U Y Y ( U T $.' [ ' ) T Y T / ) _ ' } } +.L T W I I J U I J ( +.O.[ O.' ' , = U < J U I D U I U > > > > > D J H #.Q I K ",
"K H K J < J < J > D I J < J J < > J J J J K U U K > _ [ Y U I I T J J J J K K L I J > > > D > < > > > J J > > ; H ; = < #.) E K ",
"J Y ` T I K J K I I I J I U Y W T > ` ) T W T / ^ K ' O.K I Y Y T J _ @.] o.] _ R T _ T T _ T / ` ` : ] +.] _ I O.[ T J @.( Q K ",
"< ( [ ) W Y I E Y Y W Y Y W / ) ' J ' / Y _ ' ' ' I _ O.J J I U W J ] $.( ( Y L U U I U I U Y T T { - { +.T ) Y { O.' < ) ( W W ",
"< E ) K I I K I I I I Y E I I E W J ` U J Y W Y W U _ { I > , I T J ] @.( R J D J J J F D U I Y T [ = { { Y W W { ' ) > $.[ T T ",
"< E ) E I E 1 K K I I E Q I I E W < ` I I I Y Y T I _ } D > < I W K ] O.( T J U K H J K < J I T ( ' - [ { Y W ) ' _ T H #./ T T ",
"H Y ( W Q E Y I E Y W / W Y Y Y Y > ` I U I U T W I ' ] I I J I W I _ [ ( T T Y K K L U U I U T ( ] - ] { / ( ) ( T I H { / W T ",
"< E ) ( ) W ) _ ' ) [ ' ( W W W / > ` U J I U Y T U ( _ U U J I ^ Y ] O.( ( T Y U U U I I U Y Y T ( - ] ' / T I I I I H #.' / ) ",
"; P ( ( ( ( ( ( _ ( ( ( ' ' _ ' _ > ' I > I I I Y I T } / T T T T I T ' ( ( / ( T Y Y Y T ( R ( ( ( - _ ] I I U I Y T > { ' ` / ",
"> > < J < < J < < H J J J U U J > H ' U > J J < I I , J J I J < J D J J J J J J J J < J H J J H H > = _ ] I I U I Y T > U J U J ",
"( K K Y E Y ( _ J K [ _ _ _ Y Y T > ( U J < < < U I U { ' W Y Y I Y ( ( ( / ' ` _ Y J [ T Y ( Y I J = ( ] I U U U Y T , ' ' T Y ",
"K I E E E E ( _ P I @.Y Y ( Y L _ D ` I < > : > U I T #./ E W ( ( _ _ ( ( ( / ( ' ] J +.' ' #.O.{ ] $ _ [ I I I I T T , #.) Y Y ",
"J K I I Y Q ( ( K Y { K K P J , Y H _ J H K < < Y J ^ { I I Y W ) / W Y L E Y Y _ _ K O.L ^ ( ^ ( Y $ ' [ T Y Y T ) T < { T I U ",
"< J I I I E Y W P P ` J K J J , P H +.) J H 1 K E J E { E I L L I Y E W J J Y Y ) ' K O.Y W ^ W ) Y = [ [ Y Y T T ` _ > O.' T I ",
"K I I I I I I E P P ` J J K H H P H ) E I < H L ( Y ( _ P W ~ .... .Y Y K L T ^ ` ( J o.L P ( ) { ) $ [ [ Y T T W ' _ : #.} T I ",
"I Y E E E I Y Y Y P ` J J J J H L H o.^ I U ~ f.L.d.d.7X9XuXiXyX4XxX6X~ | ) L G T } X.%.X.} / R ' _ = [ { T W _ ` ' T > { W T I ",
"W W ) ` ) ( ( ( ^ L ` J P L J H P J +.( T ~ !.E.:.k.NXiX*XqXhXsX{.,XnXx.7.d...7X9XNXuXyXyXsXwX..^ ) = } +.] ' [ ] } U > $.' ( ( ",
"I I U I W ( ( W J P { L Y J J G L > ( ( R 6X/.M s.jXoXV.yXvXmXMXgX%XMX!.5 <.vXiX=X{.>X,X2X,X+XfXL.( = Y ] ( / R Y U : : { T T T ",
"; J L J J < > J , P O.Y P L J J J > L L G !.4.S xXF.[.kXkXgXvXmXdX,XnX+X9 pXkXV.,XvXvXmXmXbX{.5XxX` $ D U I J I H H < < J J < < ",
"; [ O.' ' _ ' [ ^ P O.P P L J J L H +.] } W.M pX,XF.cXAXgXmXkXkX{.gXvXC.2.gXbX1X$X{.[.,XrX%X1XHXVXf.- _ $.{ ] ' _ T ' T T T ] } ",
"; ' [ ` ( ` ` _ _ Y { Y L J J J L D ` ..Q.>.3.mX{.#XdXtX>X,X,X[.3XHXrXV.[.<XzXMXdX5X3X1XtXZXJXSXD.g.d.R { ( W Y Y T I U U R / _ ",
"- _ ' Y Q ( W ^ ( Y O.U L J J J K D L.'.5.f W.AX+X@X@X@X@X@X>XkXJXVXZ.F.3X&X&X2XzXbXMXDXDXSXtXA.2.y t.L.' Y E Y I I U I I Y T T ",
"= ` ` I K I K W ( ^ O.L L J J L U ; !.`.3.f M zXcXgXdXdXgXZXHXGXyXA.Z.,XbX<X@X[.@X%X%X,X@XA.Z.D.B . 9 c.P...( U Y I U I Y Y T T ",
"% / Y I K 1 K W ( Y +.Y L L L J U F !.'.3.f q Q.dXgXzXcXvXCXyX$X(.G.Z.*XzX,XG.$X$XG.G.G.Z.[.{.{.eX~.N 4 7.g.x.Q I Y E Y T T T W ",
"$ T E I I K K ) ( Y @.Y ^ T L J T F X.1X+X1.d l &X&X$X$X@XA.A.G.F.1X5X%X{.$X%XkXzX2XZ.,XgXzXcXgX%X5XcXS 4 r u.P.Y W / ' ' ) W ) ",
"% _ ' E E E K Q ^ Y O.^ Y T ^ Y T H ] L.;X,XoXg.*X&X&X@X@X*X*XD.[.3XgXvXZXGXHXkX,XbX>X$X|.|.1X1X{.}.DXuX2 q ,.L.] ` W ' } ' ' / ",
"$ ` [ Q Q E K ) ( H K J J H J J H > D | 1.6.J.oXoXoXH.H.Y.c.H.*XG.G.@X$X=X,X%XZ.[.dXcXzXdX4XtXsXCXGXBXr.0 w g.| L J > J > J > > ",
"= ` [ ' E I E Q ^ Y +.( ( ^ T Y T W U | =.r 0.g.g.r.0.k w . 4 g.qX@XG.Z.Z.Z.{.*X@X#X&X5XdXdXdXhXrXoX2.:.0 r u...U Y > = = = = - ",
"= ) ' ) E I W ) T R #.T ( ( R R _ R A u.i.4 s 0.j.u.r.v 4 3 4 s j.qXqXqX*XoXu.u.*X#X@X@XG.A.A.Z.V.V.2.l q i ,.P.@.$./ : Y , F K ",
"% ) ) W E W W Q ( T } T Y J Y U Y S E.:.Y.&.2 g u.g.0.v w 5 3 9 h j.H.H.j.g 2 4 u.qX*X*X@X=XoXoXG.,.w 7 e w ,.0Xo.o.T ; Y , > H ",
"= ( ' ) W W W ) ) T } R I Y U V W.^.4.f -.R.&.2 v u.0.s 9 3 3 4 k u.D.H.v 7 5 9 v u.H.0XT.t.r B  Xc.l j a N H.P.] O.Y - Y > J J ",
"; ` ) ) W W Q ' ' T } ( Q T  .^.^.4.:.f e ;.S.h 4 v ,.s 4 3 3 9 g &.l.g.g 4 3 7 g u.H.j.<.w . w g c.oXXXXXqXT.{ [ o.Y : T > > J ",
"; [ { ) ) ) ) ) I U { ) R A `.^.4.:.f b b r &.R.p.8 8 e 4 2 5 4 e d 0.,.e 4 4 w s g.oXg.x 7 6 9 r k 0.H.P.d.{ ` ' ] I : T > > I ",
"D ` +.` [ } } Y Y ' #.` ~ `.^.5.>.f b B 8.7.k *.U.T.-.8 8 2 3 4 8 s g s w 4 4 w g g.H.,.y 3 7 7 w s u.D.Q ] { O.] { I > T I U I ",
"> I ^ W U T Y D Y I T T W.`.5.M M l b ,.8.9.w.B s -.T.T.-.h s 4 2 8 4 4 4 2 4 4 s ,.B e 4 3 5 6 3 q B 0.| E E ^ T W > > T D I I ",
"> K L K I U I I U I U V ^.5.>.M l l b ,.9.0.t.u.w.k g =.*.p.U.I.p.i.i.=.*.g g 8 s s 4 2 5 3 . 5 4 g =.-.| G J J I < : : Y I Y T ",
"; _ ` ( ( ) _ _ ' ( Y W.E.3.M d k c B q.9.e.t.t.g.g.w.b v v m -.i.K.K.I.p.p.T.Y.T.Y.I.I.;.-.K.K.K.K.-.y n ' ` T T T < : I J T Y ",
"> ^ ( W W W W W W J K E.E.M M a l b ,.,.q.r.r.u.u.j.H.n.c.u.r.0.,.l k g g h h *.*.-.-.-.h *.-.m g 8 O O + < U I I W > > Y J Y Y ",
"D ( ( Y W ) Q ) Q U V E.>.M N d b B q.9.0.r.r.r.r.g.H.H.J.H.J.H.H.N.j.c.u.r.7.b x x z y i y y q 5 7 7 5 O * U I U T > > U J I I ",
"H _ _ ( W W ) ) I < S E.M M d d B ,.q.q.e.r.e.u.h.g.H. XJ.J.XXXXH.J.J.H.J.H.H.v.c.z.t.y.8.b C C x a y q 6 o I U Y ` > < J J U U ",
"> ] ` W ) W W W T Y S 5.M d l v ,.<.e.e.t.r.r.u.g.v.H..X X.XXXXXJ.J.J.J.H.H.J.J.n.c.x.x.z.y.y.w.8.x i y 0 X * Y Y ' > > I J U U ",
"> [ } ` ' _ ` ) ( ( 3.4.M M B <.r.a.r.r.a.z.r.z.k.n.m..X.XOXXXXXXXH.XXJ.XXXXJ.J.N.n.z.z.t.t.w.8.Z c i q q . # I Y ' > J Y H J K ",
": I W T W Y T Y U W 3.3.<.:.<.a.a.k.k.h.h.k.h.h.c.M.Q..X.X.XXXXXXXXXXXXXXXXXJ.J.N.v.c.z.w.w.w.8.b z j y + . o K T / > - H J F J ",
"( ( Y > : > Y I F V 4.>.<.a.a.a.h.k.k.k.n.k.n.l.l..X.X.XXXXXXXXXXXXX.XJ.J.J.J.J.N.n.c.t.w.w.8.Z b z i 0 + O   1 T W H J W Y W ( ",
"O.{ ( Y ( ' } } F K 3.-X:X-XwXwX0X8X!.k.b.Q.Q.m.m.Q.M..X.X.X.X.X.X.XJ..XQ..XQ.Y.P.n.t.w.y.Z b b z i t q 0 o   * Y Y > ' $.` ' { ",
"T T Y _ ' W R ] I ~ s.zXgX].+X;XjXjXpXeX-XQ.m.l.j.v.v.m..X.XXX.X.X.X.XJ.J..XQ.N.H.x.t.w.Z b c z i i t 0 6 O   & T W > ` ' T / T ",
"( / ) / Y R X.9XNXaX;X>X4XfXtX:X:X1XsXjX].wXeX.XOXwXOX.XM.m.J.J.J.XX.XJ.N.N.m.m.v.x.f.w.C C c z i u t q 0 O   & Y T J ) ) Y T / ",
"( / / T Y T wXMX+X6.].#X}.|.tXCXhXaXyXrXwXVXSXHXZXMXnXbXjX0Xm.H.Q.Y.J.J.J.m.n.c.x.t.t.8.C C c z i t q 0 + o   & T / J ' ) Y W Y ",
"T ( R / R ! /.tXCXtX].C.(.(.A.(.}.=X0XrXVXJXGXtX|./.%X1XlXnXeXn.Q.m.N.N.N.c.c.z.t.t.w.Z Z C z a u u q q o o   1 ] ) U ' ` I Y E ",
"/ _ ( ( _ ~ }._.,XhXCXCXtX:X;X/.(.C.V.].GXCX/.B.Z.$X(.A._.5XbXwXn.n.c.c.c.x.t.w.w.w.Z Z Z c z p a u 0 0 O o   W [ ] I } } _ ) ' ",
"W ( I H T ! Q.#X}.}.|.,XtXBXtX4X1X;X].fXAXC.B.,XSXZXbX4X)._.gXmXm.z.x.z.x.t.w.w.Z C Z C c z a p u q + + O   @ ` ( ) J T ( T W / ",
"> H , , J H 1 d.].|.#X}.(.(./.(.].A.[.cX4XV.(.CXxXcXbXnX1XA.,XAX-Xw.r.r.d.Z Z Z Z C C c a a u p q + + o O   1 I J < < > < J > < ",
"I Y +.] ' T U R V |.4X1X}././.[.G.Z.{.nX;XB.|.4X'.lXzX3XdX).@XSXpX8.9.8.Z C C C C N c a u t t q 0 + + O O @ ' ' / W ( T T T W / ",
"I T { I R U J R V }.1X4XlX:X].6.2.2.].MX(.C._.zXcXcXfX1X2XA.#XSXsXZ B C b c x x c z a q q q q 0 + + O X # Y ( T Y I Y I T W ( ) ",
"D T ( U U U Y R V }.}.}.1XkXSXSXBXwXpXnX|.A.(.1XlX2XnX4X|._.=XDXpXC z c c z z z a u t q + + + + + + o # E ( Y U Y T Y Y T ) ` ` ",
"I T R U I I Y ( = A ].}.}.|.=XyXBXVXsXbX;XC.(.>XcXlX4XA.).).yXHX-Xa z z x z z u t t q 0 0 + + O + +   Q O.W ( T R ( [ ' ' ] ' ' ",
"Y I ] I T T Y T - H ' S Q.}.}._.(.A.].cXzX/.A.>XlXnX;X)._.#XFXAXs.7 a a a u u t q q O 6 0 O O O X   & $.O.( ( ( / ( ' [ ' _ ` ] ",
"I T ] I Y T T T - Y o.T Q A S b.M.F.V.-XMX4X(.A.(.(.A.).|.VXAXpXp O 6 O 0 6 0 + O O O O O X X . o Q Y O.+.[ [ ] ( T ( [ [ [ [ ' ",
"> W T J K K J U - I @.' ( R R R W V ..! 7XnXlX4X<X%X1XhXSXAXjXX.J & * p # o o X .         o # * ( %.Y O.+.[ O.' _ ` [ [ ' [ [ { ",
"> T Y < J J D J > > ( ( Y U T R J D ( T Y ..aXmXmXvXAXAXxX~.! G L F { +.K < 1 * * & @ @ @ % : D > > ; H H J L I J J K I U U J K "
};
