/* XPM */
static char *_3cd3839b11f418bad4e3c8596228fcfCULqQvGrkZkaE8Ar[] = {
/* columns rows colors chars-per-pixel */
"64 64 233 2 ",
"   c #080710",
".  c #0D0C15",
"X  c #13131C",
"o  c #18161E",
"O  c #381B12",
"+  c #3E2019",
"@  c #191924",
"#  c #1B1B25",
"$  c #201F28",
"%  c #1D212B",
"&  c #1E2331",
"*  c #23242B",
"=  c #22232C",
"-  c #232633",
";  c #262C34",
":  c #292D36",
">  c #252A3A",
",  c #2A2C3B",
"<  c #382F36",
"1  c #2B3037",
"2  c #2D333C",
"3  c #31353E",
"4  c #3A373D",
"5  c #461B07",
"6  c #491E0C",
"7  c #4D210E",
"8  c #54230E",
"9  c #4B261A",
"0  c #572917",
"q  c #69270E",
"w  c #642612",
"e  c #662B14",
"r  c #722B10",
"t  c #6A351A",
"y  c #74391B",
"u  c #4D2E27",
"i  c #583529",
"p  c #493739",
"a  c #553A38",
"s  c #693B24",
"d  c #6B3F2B",
"f  c #7E411E",
"g  c #5B403C",
"h  c #6D412D",
"j  c #7C4424",
"k  c #7B452A",
"l  c #78462A",
"z  c #67443C",
"x  c #794A37",
"c  c #7D513C",
"v  c #2F3640",
"b  c #353A44",
"n  c #353B44",
"m  c #393D45",
"M  c #3B3D49",
"N  c #473C44",
"B  c #523E43",
"V  c #3C4146",
"C  c #3C434B",
"Z  c #3F494A",
"A  c #3F4550",
"S  c #3F4851",
"D  c #41454D",
"F  c #4A424A",
"G  c #43494F",
"H  c #5B4342",
"J  c #564549",
"K  c #444553",
"L  c #444A53",
"P  c #4A4C56",
"I  c #474758",
"U  c #4C4C5B",
"Y  c #574A54",
"T  c #524D5C",
"R  c #4B5358",
"E  c #4C535B",
"W  c #51545D",
"Q  c #5B5158",
"!  c #515A5E",
"~  c #634542",
"^  c #644943",
"/  c #6C4B43",
"(  c #644C4B",
")  c #744F42",
"_  c #6A504A",
"`  c #745245",
"'  c #785447",
"]  c #7B544A",
"[  c #654E55",
"{  c #695558",
"}  c #725552",
"|  c #775B56",
" . c #7E615C",
".. c #434963",
"X. c #4C4E63",
"o. c #544F61",
"O. c #4E5462",
"+. c #4E526A",
"@. c #545364",
"#. c #595565",
"$. c #545B62",
"%. c #53556B",
"&. c #55596E",
"*. c #5A5968",
"=. c #5B5A6C",
"-. c #4E5571",
";. c #555A72",
":. c #555A75",
">. c #5C5D73",
",. c #655A66",
"<. c #615C6B",
"1. c #725D62",
"2. c #635F73",
"3. c #5B626A",
"4. c #5B686A",
"5. c #5C6077",
"6. c #5C627C",
"7. c #64666D",
"8. c #786467",
"9. c #636274",
"0. c #646C73",
"q. c #63647B",
"w. c #6A677A",
"e. c #766773",
"r. c #697478",
"t. c #6B7479",
"y. c #717B7E",
"u. c #874B2A",
"i. c #834C2D",
"p. c #954E28",
"a. c #8D522E",
"s. c #93532D",
"d. c #9B552C",
"f. c #864E33",
"g. c #8C5232",
"h. c #85543B",
"j. c #935534",
"k. c #9B5632",
"l. c #965A35",
"z. c #9C5A35",
"x. c #955A3C",
"c. c #9C5D3A",
"v. c #A25C2F",
"b. c #A25C36",
"n. c #A95F32",
"m. c #A25C39",
"M. c #9E613B",
"N. c #AA6235",
"B. c #A4623C",
"V. c #AB653C",
"C. c #AE693D",
"Z. c #B36637",
"A. c #B46A3D",
"S. c #BB6E39",
"D. c #BB6D3C",
"F. c #865947",
"G. c #915D45",
"H. c #845F56",
"J. c #8B614D",
"K. c #996348",
"L. c #896356",
"P. c #976754",
"I. c #A56745",
"U. c #A96642",
"Y. c #AC6944",
"T. c #B46D43",
"R. c #B66E45",
"E. c #B67044",
"W. c #BC7245",
"Q. c #BE7549",
"!. c #AA7254",
"~. c #8D6B63",
"^. c #C27445",
"/. c #C2764A",
"(. c #C5794D",
"). c #C87B4B",
"_. c #C67C50",
"`. c #CA7D52",
"'. c #CF8054",
"]. c #5E6782",
"[. c #656A82",
"{. c #696C87",
"}. c #6F758E",
"|. c #747D82",
" X c #767589",
".X c #737DA8",
"XX c #857883",
"oX c #768385",
"OX c #798385",
"+X c #79868B",
"@X c #7D8B8E",
"#X c #7A8C90",
"$X c #7C8E91",
"%X c #818A8E",
"&X c #838D92",
"*X c #859395",
"=X c #849599",
"-X c #889699",
";X c #8A969A",
":X c #8B9A9E",
">X c #919C9F",
",X c #8D9DA2",
"<X c #929EA2",
"1X c #858FB2",
"2X c #8FA0A4",
"3X c #93A2A5",
"4X c #95A5A9",
"5X c #97A7AB",
"6X c #99A6AB",
"7X c #9AA9AD",
"8X c #9DADB2",
"9X c #9FB0B3",
"0X c #A1AEB3",
"qX c #A3B2B5",
"wX c #A5B5BA",
"eX c #A9B7BB",
"rX c #A7B9BD",
"tX c #AAB9BE",
"yX c #B0BCBF",
"uX c #ADBDC1",
"iX c #B1BEC2",
"pX c #AFC0C4",
"aX c #B2C2C5",
"sX c #B5C4C9",
"dX c #B9C6CB",
"fX c #BAC9CD",
"gX c #BDCCD1",
"hX c #C0CCD1",
"jX c #C4D1D6",
"kX c #C9D6DA",
"lX c #CCD9DC",
"zX c #D1DEE1",
"xX c #D3E2E5",
/* pixels */
"V m O.C C n C C A n Z 3.E L E A Z C Z S S S R R P E 4.L 4.|.&X%X@X%X|.w.4.r.*.E $.$.E O., : C 2 V V V V C V n n v v v v v C b b ",
"V v C C m n n C A v V L C C C C v V V V C C V L r.-X7X5X+XeXlXgXsXjXjXhXdX-X4.7.C n C b 2 : 2 2 2 v V > v v v n 2 > 1 2 > 1 & C ",
"V n S C n n 3 4 n n C n 2 v n C C C 2 V C L m t.eX8X7X7XwX:XiXgXhXkXzXzX0X%X0XuXy.L R C A S C C S S C C S 2 C +.S Z C C L S v V ",
"n C $.L R G V V C C C A C S S S R S V 4.+XrX$XOXwX3X<X*XiXiX5X,X,X8XiX0X7XdXeXsX&X*XwXOX$.C C S S S S L $.v C 4.S E S S $.$.S 2 ",
"m m O.C V D V V V V V D Z D D D g S 4.wXkXzXjX%X7XwX7X,X8XuXuX0X6X8X7X0XaX0XyXyXoXeXtXtX9X%X! 2 V C C C E v S 4.C G G R $.E S 2 ",
"n n E C V V V 4 V V 4 V C C v V oX7X,X$X6XwX7X0.>XtXqXqXwXfXtX&X@XwXuXeXiXaXkX0X@XaXeXrXeXtX8Xy.C v S S E 2 S $.C G G E E L C n ",
"n n R V F V V V V V D D V R t.G &X5X5XrX3X:X7X,X&XaXuXqX=X0.2 o X 3 7.-XyXkXlX*X7XpX9X5X7X7XqX*XS t.E C S v S $.L G L E L S C 2 ",
"C n R S G G G G G G L G 4.>XiX=XD 3X=X*X2X7XtXdX7.y.$.: #   X - - # . o : ! y.7.pX9X2X:X$X3X5XL #XgX,X4.S V C O.L L L S Z C C v ",
"2 V E L L R L R R R P r.0XtXwXaXOX|.qX#X-X5XtX%X#   . o , I o.@.T U I 3 @ .   @ @XuXqX=X*XqXoXOXlXjXuX2X0.2 C E L C C C n S n n ",
"3 3 S Z C S S G C C t.qXqX7X8XeXeX|.3X7X5X3XR . o , K @.Q o.U @.Y K o.Y F I 2 @ . W 5XuXrX3Xy.aXkXjXwX5XwX3.b R C m n C n S C 2 ",
"2 2 2 3 3 3 3 4 : 3.0X7X5X2X2X7X8X7X@X8X0.# X 3 I *.8.G.i N N %.T I K a 8 } #.I 3 X @ 0.9XoX@X,X4X=X5XsXuX8X0.R C m C C C L S ; ",
"L C C S G S G L E 3XwX3X9X9X=X$X*X0X%X= X - U =.8.h.D.p.i K I o.T T K a 5 k.x } <.K , X = OXdXkXrX$X8XuXuXuX3X! S V n C n L C v ",
"G V C C G D G L ! &XoXOX:XqXuX5X,X$X- o M =.,.I.N.s B.d.0 ..>.o.Y @.X.a 6 z.y b.I.{ $.n # - :XaX+X5X=X5X7XwXqX4.C C C C C L Z v ",
"3 V V V C G G L Z ! 7XyXtXrXuXuX&X= # U 2.| i.S.) {.~.p.0 o.>.o.U &.@.a 6 d./ 1.j.d.K.,.I # = 3.*X5X*X5XqXqX4.4 S C V S C E C v ",
"V 2 V V V V G %X3Xt.! 6XwXwXtX&X= = O.=.K.V.z.^.H.XX~.d.0 X.%.&.T %.X.z 7 u.e.1Xx z.S.I.{ X.= # %X9X3X9X3X$.|.8X*XS C S S E S 2 ",
"V V V V V V %XpXuXiX*X$.*XuX$X# = @.,.s N.A.Y./.T.j W.k.0 o.=.#.T =.%.z 7 j.I.P.j.c.E.S.j.J R - % @XtX=XR t.tXgXqX0.L S L E C 2 ",
"V V Z Z C 4.rXtXuXuXuX8X0.E # # U ,.B.t B.D.W.Q.R.j._.k.0 X.%.#.o.=.X./ 7 x././.M.M.W.W.u.l  .S * % R 7.5X,X[.4.#X9X7.S R E b v ",
"C C L S L *XuX8X9XuXuXpXqX# o K >.M.A.i C.E.Q.Q.R.j.(.x.w o.{.o.N q.>.a 8 j.(._.M.B.W.Q.a.l Y.{ V @ X 5X9X9XrX7XrXpX*XR R O.v v ",
"Z C C C E 7XtXqX9XuXuXuXoXo m @.G.S.C.t V./.Q.(.R.j./.k.0 o.>.=.X.2.%./ 8 x./.(.z.B.W.Q.a.l S.B.Q n o y.8X,X,X8X9XrX8XR S S ; v ",
"2 v V 2 $.qXwXtX9X2X,X9Xn * @.H v.W.C.s C.Q.W.(.R.j._.m.0 o.].=.I q.:./ 8 c.(.(.l.B.Q.Q.a.l W.A.h.I % m wX5X$X$X2X9XwX3.1 v 1 3 ",
"; S E L r.8X8X3X$X#X,X$X% n ,.k M.W.W.t C./.W.).R.G._.m.w T >.<.I q.%./ 7 m._.(.l.B././.i.i./.D.a.F M # -X7X<X5X,X4X9Xt.C S S S ",
": S 3.P r.wXrX=XoX#X7X3.* R J.s.d.I.g.0 Y.Q.Q._.R.j.`.m.w X.6.=.F q.%.~ 7 I.(.`.l.U./.(.i.y A.^.a.s U # W wX5X,X4XuXwX4.C S S A ",
"2 C O.C t.wX8X*X$X,X<X- n T b.s.( *.U p Y.(.Q.`.Y.j.`.m.w X.[.#.N [.>.z 8 B.`.`.c.Y.E.(.k p [ J.u.j } 2 = <XqX5X8XwXuX+Xv C V b ",
"1 C @.n 0.wX5X=X:XqXr.# I H b.| -.Y *.+.K.).Q.'.U.h.`.m.w T ;.>.N q.%.~ 6 B._.`.l.I.Y.R.{ 6.%.=.H f K.m $ |.uX8X4X8XpX+XV C n C ",
"; C E 2 t.qX6X7X9X9XD * U c x.;.( x.H.@.I.(./.`.B.f.`.m.w o.2.=.K q.:.~ 7 U.(.(.l.U.I.R.@.1.h.Q %.x V.Y % N 0XqX8X8X8Xt.m C V V ",
"1 C L n P t.oXy.OX3.X 3 Q b.~.X.u.^.P.g ^.).(.`.c.i.`.m.w I ;.=.N q.+.~ 6 U._.(.c.Y.U./.} { ^.l.#.1.Z.' , . ! %X+X|.y.U V G L L ",
"; V E 3 t.fXfX=X@X%X. 3 T G.9.F i.I.B.s G.Y.I.R.F.i.`.m.w U {.#.N [.>.a 6 U.`./.l.U.B.).k f.).S.] =.U.` , . +XwX8XwXuX|.G P L E ",
"& C ! G %XlXlXjX7X-XX < >.X.2.w.w.9.9.9.<.>.=.=.>.e.!.m.w T >.=.N 6.;.a 6 U.!.8.[ | } | { }  . .1.>.{ T v . :XfXfXwXwX*XL I V E ",
"& Z $.G *XfXgXlXuX-XX 2 {.@.>.w.9.9.2.,.<.<.=.=.>.2.!.m.w I >.>.N q.;.a 6 G.e.>.-.:.:.6.].].6.].[.w...>.2 X &XqXgXtX8X*X2 2 2 2 ",
"; Z E P *X8XsXuX5X3XX 1 ,.P.>.B i.Y.U.d I.R.Y.R.G.k ).m.w Y >.=.N 9.;.H 6 U.!.H./ ] ] L.g c J.F.} &.| ,., X -XuXaXwX7X3XR Z 2 ; ",
"; C E P =X$X6XaXtX:Xo , ] Z.~.I u.^.L.z ^././.(.R.k `.m.w B -.=.m >.X.~ 7 U.`.(.s.C.D.(.j h.'.Z.' >.W.F., X 2XaX,X,X5X5X3.3.n , ",
"% C R R <X@X$XwX7X:X@ , F.S.K.;.H g.H.@.U.Q./.R.R.d (.m.w N ].#.p q.;.B e m._.(.j.Y.Q.^.{ { C.f.@.8.S.x., X 3X4X*X5X2X7X$.O.V ; ",
"; C R ! 5X=X#X,XpX3X@ > ' S.A. .-.Y =.&.I./.W.I.Q.d /.m.w F 2.=.m 9.;.~ e m._.(.j.U.(.R.%.<./ T %.G.D.F., X 5X;X#X5X7X0X*.O.n 1 ",
"2 D W E 8X,X$X:XtX3X@ > ' S.W.j.( <.U g R._.U.j./.d Q.m.w J :.<.N 9.%.~ t z.`.(.j.U.`.Q.} -.%.%.F.m.^.h., X 5XoXoX,X3X0X3.R n 1 ",
"2 D ! P :XwXqXqXpX8X# > ` S.Q.a.j.U.j.j /./.U.k.^.t Q.m.q B %.>.N 9.+.~ e z.`.(.p.B._.`.k i H.I.V.m.D.h., @ 7X4.@XqXqX3X! E 3 1 ",
"2 L 3.P 4.0.t.OX@X3.X 1 ` S.W.a.c.^.R.i.Q.Q.V.x ~.z R.c.w N ;.>.K 9.+.H 0 x./.G.H.G.(.).u.g.^.R.V.Z.D.F.2 X R R 0.oXt.7.R E 2 2 ",
"2 C E E 6X>X0.>X:X3.. , ` A.W.j.c.Q.C.i.Q.Q.k.{ }. X!.m.w B [.<.I q.:.z 8 j.m.,.}.XX!./.a.g.^.T.A.A.D.h., X $.3X<X<X7X5X$.S : 3 ",
"2 v b C aXkX>XsXfXwX# ; ` A.D.M.l.^.V.i.Q.Q.s.,.[.}.!.m.w N +.>.U 2.X.~ 6 j.m.<.[.{.!.).g.f.^.T.R.T.D.F.> o 0XdXsXaXtXqXL 2 1 2 ",
"2 C R P iXiX5XjXsXqX= ; ` A.D.z.l.Q.T.a.^./.n.h }.{ T.B.q B %.2.T 2.+.H 6 m.N.z  X| T.(.j.g.^.A.W.A.D.F., # 7XdXfXsXtX9XE Z ; 1 ",
"2 G L E wX:X7X0XuXrX- & _ S.W.j.l.Q.A.g.R.T.F.B 9.N | m.w B X.9.@.>.X.B 6 p.F.Y w.Y F.^.j.i.^.T.W.V.Z.F.> # ,X0XiXiXpX9XE S 1 2 ",
"2 C L O.=X3X=X@X:X5X: - _ A.E.s m.Q.C.a.E.k.#.F.I.u B ] q N >.>.*.2.:.a 6 k ,.G.G.d Y !.z.i.^.A.W.A.Z.F., $ 8X7XuXqX7X8XE A ; b ",
"v S R L $X7X=X2X8X0X, & / A.S.s M.^.M.a.A.x 1.S.(.s i Q r B %.>.=.>.>.p 5 / 1.^.U.p.z H.m.f.Q.T.R.A.Z.F., = 0XgXeX,X3X8XE L ; 2 ",
"v S R E 7X5X2X7XwXwX3 & _ A.S.a.k./.j.i.R.f.,.c.^.e p } q B X.>.>.>.U p 6 d ,.Y.m.f B P.b.y ^.R.W.C.A.] - - qXuX3X,X8X8X! L ; n ",
"v S E E 9XpX9XrXeXuXv # ( A.W.c.l./.z.j ^.n.] o./ N { c.q a X.>.>.>.X.p w k.} Q ~ N 1.R.m.k ^.Z.Q.A.Z.F.- 3 eXwXqXwXuXqX! L ; n ",
"2 S $.E +X:X-X-X:X&X= - H A.A.b.l./.Z.x W.W.V.G.F.x K.N.q N X.>.5.=.X.< e C.Z.G.F.F.R.^.k.k ^.T.A.E.C.c , * &X:X:X-X-XoXL L ; n ",
"2 3 V V 0.*Xt.0.3X;X= - J A.A.B.z.V.s.y T.R.^.R./.s.z.m.q B >.=.5.=.q.4 e C.Q.Q.U.k././.m.j D.D.A.Q.S.' , = &X>X*X&X%Xt.G S ; : ",
"E R L E qXaX$X=XxXjXm % Y S.T.b.x ,.Y i V.^.W.W./.l.m.m.q p X.>.5.=.U p 0 C.Q.W.U.m././.f.u ] G.A.E.A.` - 2 eX0XaXaXtXwX! S 2 Z ",
"E E D 3.5X3X5X*XkXfX3 % J C.Z.F.-.O.=.%.K.R.W.W./.c.B.m.q a X.<.=.2.X.p 8 V.Q.W.U.k./.V.[ >.%.#.J.A.C.c - 3 qXtXaXtXqXrX3.Z 2 O.",
"Z L C 0.,X=XwX*XfXfXn # J C.V.;.T f.H.-.K.Q.E.W.W.B.B.b.q a I >.>.>.K B 8 b.Q.Q.C.l.Q.Y.O.,./ O.7.M.Z.` ; 1 tX3X$X8XtXtX7.V 2 ! ",
"A L V |.5X$X7X5X2XuX2 % F Z.P.-.l D.G.( l.W.W.W.^.B.V.b.q p :.2.>.9.:.a 8 z.W.W.Y.l.W.D.{  .V.h.@. .Z._ > 1 4.0.rXsXeXtX0.S 2 E ",
"S L C |.7X+X,X3X2X5X4 % F K.7.Q i.V.Y.s.i.T.U.Y.R.j.V.b.q a I >.>.=.U H 0 z.^.^.D.z.S.^.d.c D.Z.} 3.Z./ , % 4.qXrXqX5XtXt.C 3 E ",
"L S C |.eX7X8XwXtXuXV # %.o.>.7.e.1.7.7.,.,.,.,.9.{ I.b.q a I =.>.=.I H e z.Y.8.H.` | J.' z J.] } =.| Q , 1 qXiXtXrX8XqXy.S V O.",
"L L S 4.,X,X:X:X;X|.= % w.%.>.w.].6.6.6.>.3.;.-.>.6.K.k.e a I &.=.=.A H y f.w.6.-.6.6.6.6.].6.].[.[...-.3 = |.;X:X,X,X-X0.L n O.",
"L U S S |.-X;X|.;X3X: # <.H.>.( x x.K.h.z J.x.K.L.h N.b.e i X.=.=.=.%.B y j.P.1._ _ } {  .( |  .{ =.{ 7., , -X&XoXy.! @XE E 3 E ",
"b n v C iXlXjXkXzXzX3.# K B.8.o.f S.K.h.j D.A.W.D.l C.z.r p %.=.=.=.;.a y k.W.E.V.a.A.A.S.l C.Z.] >.Y.} - 4.jXdXdX7Xr.aXR 2 3 V ",
"C b S $.tXjXgXkXkXfX&.# N N.G.&.g g.H.R x T.A.E.R.j V.z.r a K @.=.*.A H y l.S.D.C.j.D.A.H.H s.s.#.8.N.^ - 7.gXdX8X7XoXpXE C C C ",
"S v 3.R qXjXkXkXwXuX4.# N U.V.1.-.J ,.%.x S.E.A.T.d x g.r a K @.=.%.K H y i.} F.N.l.D.B.$.Q i Q +.c Z.( - 0.sXiXuXqX;XpXL C S C ",
"C C O.b 5XlXaXuX5XaX4.# M G.Z.B.[ %.@.F j A.C.A.V.( .X| q a I #.*.@.I B y d .XXXd.a.A.V.{ 6.&.&.( j Z.~ - w.uXuXdXrX:X7XG Z V V ",
"C n R b 6X:X3X,X=XaX0.# m x d.i.0 c h s t a.a.j.p.i e.z 8 u +.=.W =.:.p e s H.F.u.h k.s.k a F x j t p.B - r.tX5X5XtX2X-XL S L L ",
"S v R C 3.+XuX#X$XpX0.# M e y 0 O y y 0 7 y t y t 6 5 0 5 u K T U o.I p 5 0 r t 0 8 y t t t 5 t e 7 t p > r.uX6X;XwXqX,XL R E E ",
"S n R C $.eX7X|.#XuXr.$ N u u 9 O 9 9 9 + 0 9 0 0 + 9 9 O < I #.P @.U N O 9 9 u 9 + 0 9 0 0 + 9 9 O 0 N v  XiX7X,X8XuX,XS L R E ",
"v C E n $XsX0X=X,XuXr.$ K M K K I I I I U I I T U U I U U o.T T *.*.@.U @.%.#.o.T %.%.*.&.@.T *.@.@.I U n |.eX0X7XwXsX-XL L P E ",
"2 C R 2 $XiXuXwXwXuXt.= M %.N M M X.T K I X.%.U X.U ;.@.#.o.%.#.@.=.@.>.*.=.*.=.2.=.3.=.>.>.2.=.*.@.%.*.v @XiXwXwXtXpX*XS E E R ",
"2 n R 1  X0X6X6X8X7X=.n M I N K N K K K K K U K K K U K I I I P P I U U T @.T T U T W @.T I I P I K K I m 9.7X7X7X5X9X|.1 2 2 3 "
};
