/* XPM */
static char *c0b9297458b74c5af1dccd6519beab81Mec36Pdr6IIDy7ea[] = {
/* columns rows colors chars-per-pixel */
"64 64 95 2 ",
"   c #1F262E",
".  c #20272F",
"X  c #252C34",
"o  c #282F37",
"O  c #282F39",
"+  c #293036",
"@  c #2D343C",
"#  c #30373E",
"$  c #33393F",
"%  c #2F3640",
"&  c #303740",
"*  c #343B44",
"=  c #393F46",
"-  c #373E48",
";  c #383F49",
":  c #3C4147",
">  c #37404A",
",  c #3C434B",
"<  c #3F4650",
"1  c #3F4852",
"2  c #404247",
"3  c #41464D",
"4  c #43484F",
"5  c #484A4F",
"6  c #404751",
"7  c #414851",
"8  c #424953",
"9  c #434B53",
"0  c #454951",
"q  c #474950",
"w  c #454B51",
"e  c #474A51",
"r  c #444A52",
"t  c #464C52",
"y  c #414A54",
"u  c #434A54",
"i  c #474B54",
"p  c #424C55",
"a  c #454C54",
"s  c #454E55",
"d  c #454C56",
"f  c #444D57",
"g  c #474F57",
"h  c #484C55",
"j  c #4A4F54",
"k  c #484F57",
"l  c #4D4F56",
"z  c #454D58",
"x  c #474E58",
"c  c #484F58",
"v  c #494F59",
"b  c #4A4E58",
"n  c #4B5057",
"m  c #4C5257",
"M  c #4B5059",
"N  c #4A5159",
"B  c #4B5258",
"V  c #49505B",
"C  c #49525B",
"Z  c #4D5359",
"A  c #4C535B",
"S  c #4A535D",
"D  c #4E555C",
"F  c #4F565C",
"G  c #4E545F",
"H  c #4F565E",
"J  c #51555C",
"K  c #50565C",
"L  c #50555E",
"P  c #52575E",
"I  c #52585F",
"U  c #4F5660",
"Y  c #515760",
"T  c #505761",
"R  c #525760",
"E  c #515861",
"W  c #535A63",
"Q  c #545B62",
"!  c #545B64",
"~  c #555C64",
"^  c #565D64",
"/  c #585F67",
"(  c #575F69",
")  c #585F68",
"_  c #596067",
"`  c #5C6066",
"'  c #5A6168",
"]  c #5B616B",
"[  c #5B626A",
"{  c #5E646C",
"}  c #61666E",
"|  c #606771",
" . c #636A73",
".. c #646C73",
"X. c #697078",
/* pixels */
"> : 9 > - & * ; & , U y 4 , = = * * : 6 3 5 5 4 m = 4 B # $ * : : > B ) t a a B I 1 + : X @ # * + @ & : - % * > > : & @ E 4 , , ",
", , 9 ; - - * < - , L 9 > , * * : $ : 3 < 5 4 3 m = 4 k + # # # : > D { 9 a a x D , + : X * * * * * * * % - > > ; * & @ E , , , ",
"> , 9 * * ; * < & , ! 9 4 , : : & , : 3 4 4 5 m L ; t n $ # + $ : > B { A x b g D < + : + > , - < * * # % * - % & & & & ` 2 2 3 ",
"= 9 y @ * * * , & < ~ a t 4 4 : : : 3 9 4 5 5 m J > = 4 : > * * : > B ..U R D L [ , X > + * , , * * & * @ @ % @ & ; = & [ 3 : : ",
"= 3 S > , , , p > , [ Z B a t < , < t t t B D D E > 9 9 > = & * > - a ~ D R E B S % X > * & & : : > > > % @ @ @ # & * * ` t : : ",
"= # - & # * & = @ & : * * * * * & % * * * : > > = @ a B > : : : 9 - % % & * * = * * $ @ & % * % # + @ & * % @ @ & o X & ` t 2 = ",
"& , k 3 , = = = > > : & : > > 4 , # x t 9 , 1 9 9 * B R = > > t 3 % p ( C S b x a 1 1 t 1 1 9 9 a a + B ! g p - R B , # / t 3 2 ",
"* t L t 3 2 = 2 , 3 4 , 3 9 t t B % D t 6 a b B l - B L = * * , 9 - S ] 1 < < , > > > > > , , 6 1 E + E ! , a < D R A # b t 4 3 ",
"& 3 l = 2 2 = , : $ : 3 2 2 : 3 9 & g , * , 4 , g : g I - @ @ : , - x ( y 9 & % & * & - & * > > < U X E R 2 3 9 R B B @ ] B 9 , ",
"$ 3 k 2 2 2 $ = 2 2 : , 3 : : 3 4 $ a > : , 4 , 1 : a S & @ $ : 4 - z R y < - , - & - * * 2 , t y D X A D 3 4 b D 9 > $ ` p 9 , ",
"& 3 9 4 2 2 , 3 3 4 4 a 3 , , 3 , @ p : * > > , t : g S , * * : < , z T y 9 6 , - - - - > & > 1 9 x O x A t t 9 t 9 - $ U t < < ",
"# 3 k 9 t j 9 k k n B a 9 3 3 4 9 @ B > : - > 4 < > a n : > - : y , a E y y < > , - - , > , > , < 1 O a b y 9 , - - > $ ! x a a ",
"+ , t t t t 0 t x t a x B B x B p & B : # > > : > > < Z 6 < < , , > y A t 6 a 9 < < 6 , 9 < 1 p a a O a B - > > > , 1 @ D B b y ",
"@ @ & & # $ % & % * & % * : - = & & g > # * $ * : : @ : > : $ $ & & * % & = * * & & & & % % * & % @ X x B > = > > , 1 @ ; = = & ",
"4 : > , , 3 9 9 * = S z z x < , , & 9 : # $ # $ : > : F k 3 6 , , 9 9 t 9 a b a B , & L y , t , - * X 1 B - = > > , < @ B B y < ",
"> , 2 3 3 3 k B > > ! , < y , * 9 * s > * @ + $ : : 1 ' 5 3 4 4 a a 9 9 9 9 t 9 S 9 ; ! B B ! ! ! x X g D > : : > t t @ ! t , , ",
"* = : : , q 5 i - ; R = ; ; * & ; * h * * * & & , = , B , , : 6 3 6 4 , = , , , 9 b - R - 0 0 0 9 , . b D , , , , a 1 % E , , : ",
"$ * : : : 2 , 3 ; ; b = * = & # ; & ! b * & $ = 6 * y L 3 ; : , 4 4 3 3 $ * , 4 h 9 - R ; 6 0 6 9 3 . A D > , y 9 S x @ E B 9 = ",
": : : , , : , 3 , ; b * * * * # ; & 9 ; : $ = = 9 , 6 R 3 2 : : 4 , , 3 3 , = , b z - R < < 6 q L b . L U - , y 9 b a + _ D 4 = ",
": , 2 4 3 : , , ; ; y - * * * & - * Y 6 : = 4 4 B - t D 3 , : : , , 4 2 3 3 3 , z 8 - R ; 0 3 q B a . D U , 9 a x x , @ E 4 3 > ",
"< t t g q t 5 a < - 9 - - - & % - = R 9 4 t i k R , b ] z z z 8 t 3 t t t 6 4 9 l 9 = Y 6 3 6 q k k . L ~ B S B B S , @ [ B 4 t ",
", : : , 4 4 9 4 - ; R - ; - - % = @ 9 t q k t m A ; 9 ! b v 9 y , < = ; ; , 9 9 z , - Y ; 3 3 q 5 k X , x p a 1 , , o + D a , < ",
"+ * > & * & $ * & - ! ; ; - * - & @ - > - ; = = * & & & & * - & ; @ @ @ @ & * & @ O & Y ; 3 3 0 i n X # > = = - % & & $ * * * $ ",
"+ S E B B a x D 6 ; U ; - - - % , % ! b x y < 3 8 , 9 9 z b v v a , , ] S 6 3 , - @ & Y ; 3 4 9 q n X a ] I B x p p p 1 1 y a D ",
"+ S D a i m n t a , E , - * * * * % U < > ; , ; ; > , 9 x b x v S 9 1 { , * = * = & * ~ x t q q l A X 9 R 4 4 , , < , ; , 9 < y ",
"+ p n 3 4 4 3 4 a , E , ; * * * - % b < : , , * = = > , 9 y y y B < , D > = = * $ $ + 3 b l 9 t b A X t L 3 3 3 , > = = > 6 y y ",
"X a k & : : : 4 y , U ; ; & & - - % x < : > > & ; ; ; , 6 6 9 y B < , B 2 = * # = $ @ R ! B b x A b X t L 4 2 2 > : : = , > < < ",
"X t 4 : 2 & & 4 a < ! , ; ; ; & - % z , , 2 , 3 9 ; , 6 6 9 6 y x - , x 2 $ $ $ = * @ ) L b B b k A X t L q 4 = > 3 3 3 , < < < ",
"  3 3 = 2 = = 5 t , ( > 6 , ; - < % U , > 3 9 3 3 , , 9 3 y 9 3 x , ; q = $ $ $ = = O R U B b B A L X t Q k i t 4 3 t i B k t t ",
"X a l 3 2 2 : q 6 , U 9 < 6 9 , y % U S x l b 9 9 9 p b a x A y y ; ; 9 & $ $ $ : & o q = B L B k t o 9 ) L J J A 9 t A D A i 6 ",
"X t D t 3 2 2 5 9 & = * & & & * * @ % , , > ; = = & = ; * * * * & & = q 2 $ $ $ = = X o X O & @ o O X & - - , , ; * @ # # # * @ ",
"X 9 B x 5 2 3 k 9 > R x 9 y 6 , 9 < , , , , t 9 t & b E x B x x b ; = m 2 $ $ : = & o S A > t L 9 9 , , , , 9 3 3 , # X X X X o ",
"X a m n 2 : 4 n 9 , ~ 4 p p , a k t t t 9 t a B F > _ F 1 1 t , b 9 > I : = $ 2 = $ # } k B b R A A b B B U E ] ] ] 9 + > @ @ - ",
". t n q 4 4 4 q y 6 ~ > > : , , < y 3 4 > , p t g > F a $ > : : t 3 & q 5 = 2 = = = & / 9 9 9 3 y , , < 9 a B L T U 3 + > * & & ",
"X a m q 5 4 4 q a < E 4 4 : , , , , , , 3 , 9 g g > I Z = : : , b 6 , E 2 5 2 * 3 = & / t 9 z 9 , , , , < p a U D U , O , @ & * ",
"O b b t 4 4 5 n B , J 4 t 4 2 4 4 , : 3 4 , , n n > Z I , > , : b < 9 ! 5 4 = > 3 = & ~ x a 6 6 < < < , < a D B B U > @ , @ * * ",
"O A R t i n j q - , E t t 4 4 i n l 5 3 9 2 n n S , g Z a , , , 9 , 9 P 3 ; , 6 9 > * ( B n y y a y < 6 9 b L B B S , + 6 @ # , ",
"@ A E l L A J , 3 x ] b B B n A m l l 5 4 9 B B I 1 g A a 3 4 , , = b ) b b h h a x = { R R A D B S B A D b D L B S : @ 1 = = * ",
"@ ; 9 3 < y , = < = 9 3 , , , > , , , , > , 9 9 p * g g t 9 : : t = , 9 3 t 6 ; & , + 9 4 y y t 6 9 6 , 9 , y a 9 < @ + , * > , ",
"@ = ; = = = ; > * * = = > > : : & o : : : @ * : > $ m g , , : : y = ; 3 ; > & = - - = = > = = = ; @ X & - = = & * & + + , : , 6 ",
"@ x B y 9 9 b b k 4 6 9 a p k B , > E D B 9 b A D , S a , ; = : 6 & A } E Q E E ] ~ ] ! R R E L E E @ ~ ! a a t 6 t $ + : = , , ",
"@ 6 9 y 3 t 3 t 4 * * : : , < t , > E 9 y 9 a 9 B , B 9 , : > , t = L Q 9 t a t B D D B 9 9 b 9 B E @ E a - > : , < @ @ , & , , ",
"% t 9 , 4 t q k 4 : * : : * , p , , ~ t > 4 t y y , R B < < : < k * B / 9 , a a t B D p 4 y a 9 B D + E a > , : - 9 @ @ , & , > ",
"% a 9 9 q 5 i t < : * = : > > p 6 , R , , 4 4 4 t , t t < : : 6 B & S _ y p a g B B A y t 9 9 a b B + D t > > > , a @ # - = > > ",
"& a 9 t i t 4 4 < , : : > > , a < , B , , t t 3 t : t B a y , a L * S _ p 9 1 a b B a t 9 3 9 9 B x O D p & : > , n # & - - > - ",
"% D D t B t k k p t 9 > , > 9 a y , n , , , , < a , ! D a a a a g : n  .x a a b S 9 A a 9 t 9 B U B O B t * > : , a # & , & - - ",
"O > 9 9 , 4 , , 1 < : $ & 2 : > * > m < > 9 4 t a > L E A a a a B # x { D B D S B z 9 L 9 B y B D B + S a , , : < t @ o & & % & ",
"9 9 , @ + @ , , @ = , > : : > > & > A , 6 , y t 9 = = > > = + * $ + * : * * * * % @ & & @ & @ = > % + T n : : , , 9 % = t , 9 y ",
"L L a > t k D R * - ! t , < 9 < ; , A , , 9 9 y t - , 9 , , , = ; , 6 6 z S R 9 h , * ! A 9 6 6 , y O E L = - , , y & k [ B B U ",
"9 , 3 b k t 9 A & , E 3 9 < 9 < , ; D , , , , < 9 ; S b , , 9 > < < , , 6 8 8 x T 9 * X.z ; 6 ; < x @ ~ R , , , , , & A B ; 3 9 ",
"3 9 9 t , a p L * : E , 3 3 9 9 > , E , , = = , 9 ; A y > : = : ; ; ; = - - ; ; z 6 ; ) O - ; ; , b % D ! , , ; , 3 & a i , < 9 ",
"9 y 9 < > 9 t b * , Q 4 3 t 3 t > = E > = & - , a = x t : : = : , ; ; * * ; , < 9 , ; | * ; ; 3 t B & , U b < , 3 9 ; a a , 3 > ",
"6 9 9 9 6 y y B # = J 4 9 t 4 k = = J > * * , t A ; x 9 : & : , , ; , = > , 9 , z ; * ) ; ; 4 6 9 l * R R t 9 9 B 9 = D m > 3 4 ",
"9 y a 9 9 b b ! ; = J 4 3 3 3 3 * > D - = = 3 k B = L 6 : , , , , 6 9 < ; 6 6 9 h ; & A 6 ; q h b l & { | U A B B B > B I a i k ",
"9 6 ; & , a , 9 $ = L : 2 : = 3 , ; Q 9 3 y b R L = B B i i n 4 , z 9 9 z 6 b b A 6 & A y ; q l b b * ! | ) R x y 9 & 9 t 9 4 t ",
"@ & & # & = % & O ; m : : : : = , @ , , - ; , 3 - @ = = * : * * & * ; * * * ; * - & ; T h 3 h l b b * ; , ; = = ; & # # % @ $ $ ",
"> , ! S S < , a + > L , : 3 : 3 6 & 9 , ; ; * * & = = = & ; ; = ; * 9 b b a * = t # ;  .b 4 h h x B : D U x g b 9 t t y , , y t ",
"> 1 D > 1 > - p + & m , : : 2 2 9 ; ! q ; ; = = : = = 3 k 6 , 9 9 * R  .L ! L E / 4 =  .t q t 6 < B % ~ L 9 y , - ; , ; 3 3 y t ",
"* 1 b > = - > p + @ t 3 2 = = 4 , ; L * # # $ # $ $ = 2 , = , 4 8 * A ! 4 5 n n A k = / t t t , , b & L R y , , , 3 , , 9 y k B ",
": , 1 > , > , p + $ t , 2 2 = 4 6 ; l = # # # # # = = = = = = 4 q & A ! : 3 t > a b = / 9 h 9 ; , x % R L 9 9 < y a A S 9 B B b ",
", , a , < y , 1 + * b , 4 , , t y ; 9 = $ $ $ # $ $ 2 2 ; & 2 3 4 * B I & : 2 2 t , * / b q y ; < B * ~ R x y p 9 y B A U 9 b S ",
"* 4 g , , < , 6 O = U 6 t 2 2 a y ; z ; = $ * = = = 2 3 2 , 4 , 1 $ B Z & : : , 3 @ = } b b b y a T , ! R S S b 3 3 9 B S A A b ",
"@ 4 1 * = > & = X > ! b 9 9 y b < * E q 2 q ; 2 3 3 3 q t 9 6 6 1 @ Z Z $ $ : = 2 3 * ~ R Q R b l } 6 R ! U R D 9 A A D A A A L ",
"@ t , @ - & % = @ $ b 9 , , , > ; & a 3 6 2 = = = * ; ; - - , > - + J I 4 = : = k q + * $ $ & O # @ O & & % - ; & = = ; > > - * "
};
