/* XPM */
static char *ef19faa22a7a462c96e8ed275b9ac787DuPVVcV3h1B3GKBx[] = {
/* columns rows colors chars-per-pixel */
"64 64 236 2 ",
"   c #150E0C",
".  c #1A1919",
"X  c #351D0F",
"o  c #271C16",
"O  c #20201F",
"+  c #2C211B",
"@  c #34241D",
"#  c #3A261C",
"$  c #171922",
"%  c #1E2731",
"&  c #242424",
"*  c #28292B",
"=  c #342A26",
"-  c #3C2A22",
";  c #37312C",
":  c #232936",
">  c #242B34",
",  c #292F36",
"<  c #2A2E3B",
"1  c #342F30",
"2  c #2A3138",
"3  c #2D343C",
"4  c #383837",
"5  c #31363E",
"6  c #34393E",
"7  c #472C1E",
"8  c #452E23",
"9  c #4B3328",
"0  c #54372B",
"q  c #453B38",
"w  c #583F33",
"e  c #693F23",
"r  c #4F4339",
"t  c #6A4536",
"y  c #6E4C35",
"u  c #784D34",
"i  c #74533A",
"p  c #2E3541",
"a  c #2B3848",
"s  c #303741",
"d  c #343B44",
"f  c #393E45",
"g  c #353E49",
"h  c #383F49",
"j  c #2A3A57",
"k  c #343854",
"l  c #273C65",
"z  c #403D42",
"x  c #3C4146",
"c  c #36414C",
"v  c #3C434B",
"b  c #3E4651",
"n  c #3D4754",
"m  c #374868",
"M  c #274278",
"N  c #354B76",
"B  c #3D537B",
"V  c #41464D",
"C  c #44494E",
"Z  c #494848",
"A  c #564D4A",
"S  c #58524B",
"D  c #404751",
"F  c #444B53",
"G  c #494E55",
"H  c #464E58",
"J  c #484F58",
"K  c #4B5156",
"L  c #47525E",
"P  c #4C535B",
"I  c #545555",
"U  c #5B5955",
"Y  c #50565D",
"T  c #55585C",
"R  c #644C41",
"E  c #61554A",
"W  c #785945",
"Q  c #655C51",
"!  c #755958",
"~  c #6A665C",
"^  c #7A6753",
"/  c #766758",
"(  c #455167",
")  c #4F5660",
"_  c #515760",
"`  c #535A63",
"'  c #585D67",
"]  c #596067",
"[  c #5C626A",
"{  c #5E6770",
"}  c #666866",
"|  c #6D6D6B",
" . c #777368",
".. c #6D7273",
"X. c #787973",
"o. c #9C5629",
"O. c #8A5631",
"+. c #B16735",
"@. c #B76D3A",
"#. c #C4753C",
"$. c #845D45",
"%. c #8A664B",
"&. c #996D4C",
"*. c #836954",
"=. c #977555",
"-. c #AC7248",
";. c #A97853",
":. c #8A7967",
">. c #847D6C",
",. c #977C61",
"<. c #C57A45",
"1. c #D67F44",
"2. c #7F8178",
"3. c #B98457",
"4. c #8C826D",
"5. c #9B8265",
"6. c #8D8574",
"7. c #968B77",
"8. c #9D917A",
"9. c #A88767",
"0. c #B68A62",
"q. c #A6947A",
"w. c #AB9B7D",
"e. c #B79372",
"r. c #CC834E",
"t. c #D3844C",
"y. c #C68958",
"u. c #D68D54",
"i. c #DB945B",
"p. c #E5975B",
"a. c #D89B65",
"s. c #C79B71",
"d. c #E49D63",
"f. c #E99E63",
"g. c #DDA066",
"h. c #DDA46C",
"j. c #C7A47C",
"k. c #D9AA77",
"l. c #EBA266",
"z. c #E5A56C",
"x. c #E9A56B",
"c. c #EBA96F",
"v. c #F4A769",
"b. c #E5AB73",
"n. c #E2AB77",
"m. c #ECAD73",
"M. c #F2AD71",
"N. c #E5B37B",
"B. c #EBB57C",
"V. c #ECB77E",
"C. c #F3B478",
"Z. c #F1B67C",
"A. c #375389",
"S. c #385998",
"D. c #395DA4",
"F. c #3A61AE",
"G. c #3A64B4",
"H. c #7E8182",
"J. c #8B8F86",
"K. c #969589",
"L. c #9D9E97",
"P. c #AA9D83",
"I. c #9FA093",
"U. c #ACA389",
"Y. c #B3A283",
"T. c #B4A58A",
"R. c #BAA88A",
"E. c #BBAA8C",
"W. c #A9AA98",
"Q. c #BCAD92",
"!. c #B4AE98",
"~. c #BDB297",
"^. c #B4B29B",
"/. c #B0B1A5",
"(. c #CDB38C",
"). c #DAB486",
"_. c #C3B394",
"`. c #C5B599",
"'. c #C5BA9D",
"]. c #CBBB9D",
"[. c #D1B390",
"{. c #E5B985",
"}. c #EDBC84",
"|. c #F1BC83",
" X c #EFBF94",
".X c #C3BCA3",
"XX c #CDBEA1",
"oX c #C5BFAA",
"OX c #D0BFA2",
"+X c #DBC09D",
"@X c #ECC38C",
"#X c #F6C389",
"$X c #F2C48C",
"%X c #E3C494",
"&X c #EEC792",
"*X c #EFC992",
"=X c #F1CA94",
"-X c #F2CA95",
";X c #F5D19E",
":X c #CCC2A4",
">X c #C7C4A9",
",X c #CAC5AA",
"<X c #D2C3A4",
"1X c #D6C8A9",
"2X c #D4CBAC",
"3X c #DFD2AE",
"4X c #CAC9B5",
"5X c #D5CEB6",
"6X c #DAD3B4",
"7X c #D8D4B6",
"8X c #D4D3BB",
"9X c #DDDBBC",
"0X c #EAD3AC",
"qX c #CDCDC3",
"wX c #D6D6C3",
"eX c #DCDCC3",
"rX c #DDDDCA",
"tX c #E1DDC5",
"yX c #DEE1C3",
"uX c #E1E1C3",
"iX c #E4E3CC",
"pX c #E7E7CD",
"aX c #E4E5D3",
"sX c #E7E8D5",
"dX c #EBEBD4",
"fX c #EDEDDA",
"gX c #F1ECD9",
"hX c #EFF0D8",
"jX c #F2F2DD",
"kX c #FCF8DF",
"lX c #EEF2E3",
"zX c #F4F4E4",
"xX c #F7F9E5",
"cX c #FBFCEE",
"vX c #FEFEF2",
"bX c #FCFFF7",
/* pixels */
"x x H x x d s x d x _ H b x x x g m S.G.G.A.C C I d D P 3 d d d f d H ' n F J J T n , c > 3 6 5 3 2 6 c x 3 d x c d s 3 _ b v v ",
"x c D c x d d b g c _ C x v 5 c D.G.D.A.A.S.N F P f C G 3 3 9 0 0 w R R A D z G Y x 2 x , 6 c 6 6 c 6 6 s x c c x d 5 3 _ v x v ",
"v b D g d g g v s v ' n b x N G.S.m g Z x x l M ( c G G p ; - + 7 8 0 0 9 0 q F Y b > v , 6 v x v 6 c 6 s g d a a s 6 6 ] Z V V ",
"x D D s s g g v d v ' F C A.S.m d x v C F G F n N j a k : k l l 1 * - # @ 9 0 r ' v > v 2 c v c c c 5 5 5 2 5 3 s d d g ] V x x ",
"d v L v v v v H c v [ H B S.n v v b F F F I P P K g j a < < ! ' M l : - = - 7 V L 5 > c 5 d x x x x c c 5 2 3 3 p s s 6 ] C V 6 ",
"x s x s s s s d 3 p x d l a 6 g s s d d 6 N S.D.A.l m P = X -.O.,.t $ k k < = 8 5 x 5 3 d 3 p 6 3 2 5 5 c 5 2 2 s 2 > d ] F V V ",
"6 v H b v x d x x c x s j c v b v 5 K D S.F.S.( m d P P . i t.z. X%.  s l m z n n n F n n n n n H H 2 L T H H x _ P v s [ F Z 6 ",
"d F Y F C x x x V v C n c C C G P 6 ( D.A.v v h J d F P S V.t.}.=X).y.;.t h n k x x c c x v v b n Y , Y ` b F b _ P P 5 K F C V ",
"6 V G f 6 Z 6 x x 6 x V Z x x V V g S.m 3 L...H.4XJ.X.^ k.m.<.@X&X=X=X|.%.b d 5 d d d d 5 c x v b Y > Y Y v C C Y P F 5 [ L b C ",
"s v G V Z 6 V x x x x v v x x C V N N 1 T lXvXfXwXj.a.g.V.V.@.b.).,.-.s.} a p p g d d d 5 x x n H P > P Y b C G P G b s ] F b v ",
"d v F C V V v V V C D C C v v v V j k / 5XbXuXoX9.t.B.N.V.@X#.+.).Y.,.aXL.} } L...p d g x c x n b H 2 L Y F F G C b x 5 Y F b b ",
"5 V K F F F F K K K P H D C C D C j / &XzXpX8Xj.h.B.V.b.z.x.p.+.+._.aXrX8XcXcXtXE.L.} g x c c v b F > H K n n v x v v 5 ] K F H ",
"2 v F D D F F F K F F J P L H P n f n.%XdXeX[.}.@X;X&Xz.z.h.b.k._.sXrX!.zXbXbXeX).{.} g b n n F H F > H H v c x x v b 3 P P H F ",
"3 3 6 d 6 s d s s s s s d x x d : / 0XaXsX5X|.=X=X&X=Xm.}.&X=X].zXrX!.aXbXlX1X{. X$X9.p d s d 5 5 3 > H K c 6 v x b b 2 x d x d ",
"C v x v v V D D d c P H H F b v h =.pXvXwX].$X&X&X&Xm.a.@X$X).4XrXoXaXvXbXaXh.}.;X%X}.~ b v D v x d > F K x c v c v b 6 P L b b ",
"x x V v V C J K x v ` v b H v f n W 0XuXwX}.$X=X&X=XV.}.=X=X].aXqX5XzXbXzX1X X%X*X%X$X9.H P ' ` _ K % K L x x x x b b 3 ] C v v ",
"s x x x v C C F h v P d f h d 5 h q [.5X8Xs.|.$XV.C.d.|.=X@X.XrXiXiXfXpX(.m. X=X*X@X|.;.d D F D H v % K P b v v v G C 5 Y b x c ",
"d d x x v v v C h h P f d f d 5 h p 7.<X4X3.p.d.l.p.u.i.c.b.>XrXlXiXdXP.#.v.v.C.|.M.v.y.Z V F D F b % P P v v b b K H 3 ` K b x ",
"x x x x x v x C v h P d d f s s h p J.OX4X<.d.N.V.V.*Xb.p.y.2XyXlXgXcX9.o.f.m.d.l.d.{.;X,.k F C Y G % Y Y c v b F K n 2 ] Y b x ",
"x x v C v x v v c x F d d d d s h p P.E.qXk.m.;X@Xz.z.B.=X).,X5XdXzXcXY.@.C.$X{.i.a.;X;Xs.Z V G K G % Y Y b C G K L b 3 T C b x ",
"C C F H K C F K b x H d x x a s h d ..P.4X{.l.c.x.z.u.b.m.%XwXwXeXdXcX5X-.l.|.{.;X{.{.=XN.Z D G F K > P ] K P L H P v 3 [ K C G ",
"v x x v b F D C d x ) g v d d d a : b Q !.OX<.@.b.=XV.&Xl.h.8XrXtXrXgXbX`.y.v.d.@X*Xx.$X}./ g F K G > v K n F b v c 2 2 Y n v b ",
"2 d c 5 d 5 5 d 3 c ) c c c p p ! W z h 7.oXq.#.M.Z.p.B.p.3.wXyXlX9XtXjXq.+.p.d.b.$Xm.x. Xk.U D F F * 5 c c x c c 3 5 5 c 6 d 6 ",
"2 L Y P P F P P b x ) x x a / ;.n.Z.%.5 *._.XX).#.i.<.t.a.>XwXyXvXdX:XtX1X9.0.t.v.M.l.{.{.@X).Z F K > H [ Y K H G n G b b n H Y ",
"2 P P F G J J J F v _ v a S n.#Xh.a.O.X 9 ~.~.>Xj.g.a.e.'.'.~.yXvXcX9XE.,X.XU.,.+.t.b.}.&X@X).A H P > F Y C C v v v v x v n n H ",
"2 H K v C Z V D F v _ v p *.Z.n.N.b.u.e r hXzX.XoX].(.'.~.E.5XxXcXvXxX,X8.8.~ v q <.{.}.m.@XB.%.H Y > F T C C v v v d c v v n n ",
"> F K x f f x C F D _ c d w p.f.p.l.z.O.+ U.cXcXqX>X>X!.P.4XcXkXpXiX9X7X<XU.f 2 i l.&X$Xm.c.=X).I K > F Y C C x x v x x v v v b ",
"> F C d f f f C F v ` v v , u <.p.v.-.7 8 @ 8.hXjX9X'.^.!.8XyXhXzXpXyX7X<XE.x 3 i l.@X=XB.l.$X;X/ L > G Y C b x x v v b v b b C ",
"% C V f x f f C F b ' v D b 1 9 u O.t X # . E q.Y.`.'.T.U.Q.>X.X1X9X9X<X<X~ 5 d r f.C.#X*Xb.m.$X5.L > F T F G C C C v G K G C C ",
"% F K C Z V f C D v _ D v b D f 4 - + o . 4.jX8X .4 4 1 r Q 6.P.q.6.7.T.~ 6 6 d d %.v.v.@XN.c.#Xe.C > F [ Y Y Y P K n H T Y K G ",
"> H P Z V f V G F s f d d s d d 6 3 6 5 6 ^.xXbXxX^./ r & . $ O & & Q !.G 6 6 6 x 6 u i.M.C.i.k.&.2 > s v v v v x 6 3 c 6 6 3 3 ",
"> F P K V V V Z V v _ H F D b v C V V h K >XxXxXxXcXpX:XA O ; 4 8.>XxXuX| 2 6 f x d % W u.;.t 8 + + x C v v v b n v 5 > > > > > ",
"> J K G v x C K n C ] v G n v G K F F c 6.jXvXxXpXaXbXzX* | 2.S kXdXbXeX^.T f 5 s 6 d ` - 9 t 9 o o f P P _ ` ] ] [ H , c 3 g g ",
"* F G C C C C F C n ` v v x v v v n x } aXbXvXvXcXzXpXeX& /.W.r iXzXbXiXfXzX8XL.| f < Y o 8 t 9 @ o * v D F P Y Y ` v 2 v 3 3 5 ",
": F K G F V C Z G b Y n v v v v v v G 4XzXfXzXzXbXvXcX6X4  .>X* 4XbXbXuXiXbXbXbXcXwXK.} $ o @ 8 - o = h b F L P P ) v 2 v 3 d s ",
"< J K G C C C K K b T C C C v b n x 7.6X<X/.].>X9XcXcXxX| 4 eXZ K.bXvXrXtXcXcXcXvXbXbXfX:.# - i 0 o o f D F P P P _ v 2 n 3 5 d ",
"2 P P J F K K K x v T F K G b G K C U 2XhXxXzXgX5X.XzXbX~ U 9X. K.bXxX9XiXbXvXcXcXcXvXzX#X=.+ y t @ o 4 D K P P K L v 2 b 3 5 x ",
"3 P ` G K Y T x v G [ P K K K K K K | dXbXcXvXvXbXtX.XfX4 ~  .. qXvXpX4X9XzXfXcXcXcXvXdXB.j.+ 9 t 9 @ 1 P P Y P L Y x 2 b x c x ",
"3 x F V b b x d v x n v c v v c c x W.cXvXcXcXcXcXjX5X4.& 2.q 4 4XoX:X7XuX9XpXxXcXcXbXfXZ.=.. 7 t 0 @ * D v n C b v 3 2 v 6 x x ",
"3 g x d d x c x c c x x x x x v 3 v 9XcXcXcXcXcXcXzX9XZ * Q * E Q.:X7X7X6X1X<X2X9XfXxXcX&Xo.. + - 9 i q c x x g 6 x 2 2 v c v b ",
"3 H P F F F K P G C v b G G K P c 2.xXcXvXvXcXcXcXcX>X* 4 / * 4._.R.E.`.].].`.XX<X6X9XyX3Xe.-.0.;.a.W Y ` F F n b F 6 > x d b v ",
"3 D D D C C C C C f c x c v v F x W.bXcXcXcXcXvXcXcX^.& 1 G *  .Y.R._.'.].OXOXOXXXOXOX<X6XpX<XN.0X7.% ] G c c x x b 3 3 b d v v ",
"p F F D F F F C F x 6 c f d x n F eXbXcXvXcXvXcXcXvX^.& f v 4 * T >.w.w.R.E._.].].XX].].<X2X2XXXhX/.% T F v c x c C 3 3 x d x x ",
"p F F F F Z G G v f c x x c v b T dXvXcXcXcXvXcXcXbX>X4 b v x * 6 d ~ 8.R.E.Q.].].].].XXXXXX'.XXyXL.> Y n x x x v H 3 6 g d c c ",
"5 H H C F C C C v v x x x x v H X.iXvXcXvXcXcXvXcXcX^.F H C C v V f P ] } q.E._.XX].]._.].].XX2XhXW.> P C x c x v H 3 5 g g x g ",
"5 P Y G P K K F H C n v v b v W.7XdXvXvXcXvXcXcXvXdXX.H H F F F K d Y { F P  .6.4.q.w.w.OX].:X7X9X!.2 P n c x c v K 5 5 v d g g ",
"2 c C b b b v v v n x 3 x p C :XuXxXvXcXcXvXcXvXcX!.P Y P F D K P 3 F [ P P L P G >.w._.OX].1X7X2X'.Z K G x x v b n 3 2 5 d 5 s ",
"F F v 3 2 5 v v 3 x b v d T ^.1X9XfXvXcXcXcXcXcXhX| p c x x 3 s 6 2 d x d d d d 3 G Y.OX].OX<X0XXX1X6.Y P x x b v C 5 x b b C n ",
"P Y C v C K Y ` d c ] c ] 2X7X:X9X9XjXvXcXcXcXdX:XC v F v v b c c v b D H P _ J D T P.].<X].<X<X].<XQ.] P x v v v n 5 H [ H P Y ",
"F b b F H F F Y d x P K .X2X].].9XuX9XdXxXcXdX9XK.6 P G v v v v v b v D D F D D P T q.Y.E.Q.1XOX:X<X].X.P v v v v v 5 K P x C n ",
"b n G F v C F P x c L K.0XXXXXY.:XuXuX9XuXuX7X].~ d P C c x d x v h g d g d x c J F q.Y.w.`.OX].<X6X<XK.P D v c v D d H G v b C ",
"C F C b b C F P d x ] ~.XXOX_.w.Y.1X9X9X9X2X<X>.n x J F x x x x x v x d g f b v F D :.Y.T.OX].Q.<XuX7XT.Y H V v C D d H F v V v ",
"F n n F F C F P c 3 ..2X].<XR.w.w.Y._.`._.`.6.b H c P C x d x v v x c f x b b v F g Z w._.OXE._.7XuXyX].T K D F K n x P K x v C ",
"F G H n F L H _ Z u q.yX:XXXR.w.w.w.q.Y.E.>.v F P d P D x x v v v D D D v D D H P g 6 U.OX_.w.OXuXtXuX2X..P P P P K c P Y H G K ",
"C n x d v F x C -.1.e.uX9X1XE.w.w.Y.R.R.7.C P Y Y d P P F G H F v D H H F D J P Y V ~ _.`.w.E.9XyXyXuX:X| ' _ L n F x n F b b C ",
"5 s 5 5 d d s 6 r.t.9.hXuX2X_.R.R.R.P.w.I x V V x 3 x d x d d d d d x d d d d d d 6 6.Y.P.R.OX6X9X6X1XT.v c x g x 6 5 5 5 5 d 6 ",
"x v ] L Y n g A u.M.y.wXkX5XXX_.T.q.Y.>.d h d d d f d f d x h h x d F P J F d f F s U 8.8.q.Y.R.Q..X`.| L P L P F b b C b v C C ",
"x b P c b v a R c.#Xf.e.cXyXXXXX_._.Y.I h h f f h f v V F b v D n g _ { Y T P _ ' C s { J J S &.0.0.y.;.S b D v v v v v b b C G ",
"c b F x v g a &.#X@XC.u.E.uX:XQ._._.7.d 5 5 6 5 6 6 f x v x x V D d P ' C G P K P G h ' C D $.t.b.B.v.M.i.$.x c v b b v n F P K ",
"x x n c x c A V.=X*X&XC.-.| ^.].T.6.U d 5 5 5 5 5 f f x f d x V F d P _ x V C v J J h ' D E p.M.}.*X}.v.M.v.-.V n F P K K H P P ",
"c x F v C c *.=X=X&X}.V.l.r V ~ J h F f 5 5 5 5 6 f f V f 6 V V C d P I 6 d v V C f f } H W v.M.m.C.*X$XC.c.v.&.V F L P P F K L ",
"x n H x n g ,.$XV.m.d.l.l.i c D D g J f f f 6 f f f z V V V V v n 5 P P 6 x x x V 3 f [ G R <.p.p.v.}.=X*X@Xc.f.@.W n P P P L P ",
"3 b n 6 x a W m.h.b.b.h.b.9.D J b d _ F V V f V V V C C D D n n b 5 P P 6 6 x f V V d ' ` _ S W $.;.M.$X*X=Xi.i.p.r.K K K K P P ",
"3 n x x d d < &.a.a.a.a.h.y.V b d d F V V V f f f d h h c x x v d 2 P ' V d x x G C < d s s p a < > i d.c.b.V.h.h.&.x x c c x x "
};
