/* XPM */
static char *bc594df3cd4049ddb3152b7daa90b4b4xockkQbNUTC5EBXr[] = {
/* columns rows colors chars-per-pixel */
"64 64 103 2 ",
"   c #1C1B19",
".  c #201F1D",
"X  c #21201E",
"o  c #252422",
"O  c #282725",
"+  c #2A2926",
"@  c #2D2C2A",
"#  c #302F2D",
"$  c #32302E",
"%  c #353331",
"&  c #383735",
"*  c #3A3836",
"=  c #3D3C3A",
"-  c #413E3D",
";  c #42403E",
":  c #454341",
">  c #494644",
",  c #4B4847",
"<  c #4E4B4A",
"1  c #514E4C",
"2  c #53504F",
"3  c #565351",
"4  c #595654",
"5  c #5B5756",
"6  c #5C5755",
"7  c #5A5956",
"8  c #5A5857",
"9  c #5B5857",
"0  c #5A5A57",
"q  c #5C5855",
"w  c #5D5956",
"e  c #5E5A56",
"r  c #5B5958",
"t  c #5B5A58",
"y  c #5C5858",
"u  c #5C5A59",
"i  c #5D5B5A",
"p  c #5E5C5A",
"a  c #5F5C5B",
"s  c #605C5A",
"d  c #615D5A",
"f  c #615D5C",
"g  c #625D5D",
"h  c #605E5C",
"j  c #625E5C",
"k  c #625E5D",
"l  c #63605F",
"z  c #65605E",
"x  c #64615E",
"c  c #64605F",
"v  c #66625E",
"b  c #666361",
"n  c #676361",
"m  c #696562",
"M  c #686463",
"N  c #6A6663",
"B  c #696764",
"V  c #6A6664",
"C  c #6A6766",
"Z  c #6D6966",
"A  c #6C6967",
"S  c #6D6A67",
"D  c #6D6A68",
"F  c #6E6A68",
"G  c #6F6B68",
"H  c #6E6B69",
"J  c #6E6C69",
"K  c #716E6B",
"L  c #726E6B",
"P  c #726F6C",
"I  c #746F6E",
"U  c #74706D",
"Y  c #75716E",
"T  c #75726F",
"R  c #76726F",
"E  c #767270",
"W  c #767371",
"Q  c #787471",
"!  c #787472",
"~  c #797573",
"^  c #7A7673",
"/  c #7A7674",
"(  c #7B7775",
")  c #7C7875",
"_  c #7D7977",
"`  c #7E7B77",
"'  c #7D7979",
"]  c #7E7A78",
"[  c #7F7B78",
"{  c #807C7A",
"}  c #807D7A",
"|  c #817D7A",
" . c #827E7B",
".. c #837F7C",
"X. c #83807D",
"o. c #85817E",
"O. c #878380",
"+. c #8A8683",
"@. c #8C8885",
"#. c #8F8B88",
"$. c #918D8A",
"%. c #96928F",
"&. c #979390",
/* pixels */
"..X. .X...( ] _ ~ ~ I I b - ] _ ' ' [ ( ' ( ( ( ( ] ] ] ] ] ..2 3 M 4 s b v C D A G G L G G A M A 4 * G M M M J ~ T ( _ I I U T ",
"4 4 4 s e 4 4 3 3 1 3 3 1 - E y 4 4 4 3 7 3 2 < 1 4 3 1 1 3 r : 3 4 > : > < 3 1 2 1 3 3 2 2 2 < < < = A 2 2 3 e 7 q 4 7 2 1 2 3 ",
"4 4 y s y s y y 4 e 4 4 3 - T s r 4 3 3 3 < , < 1 1 1 1 < 3 4 : 3 f 1 1 1 1 3 1 2 1 3 6 4 2 2 2 2 1 ; T 3 2 7 a a e 4 7 4 r 2 < ",
"3 4 4 y y y 4 4 y s r y 4 - T e r 4 3 4 < < < < 3 3 < 3 1 4 7 , 7 b 3 1 < 1 2 1 1 1 1 3 2 2 3 2 < 2 > K 3 2 3 4 a a y 4 3 4 4 4 ",
"3 4 3 4 y 4 4 4 y f f f a < T 3 3 4 4 < < < 1 3 4 7 r r 4 4 y 2 a b 4 1 < 1 1 3 2 1 2 2 3 2 3 3 2 3 , A 3 < 3 3 7 7 4 3 4 3 3 r ",
"3 4 3 4 y 4 3 2 4 y b f a 1 E 4 3 3 4 4 4 3 2 3 4 r y y r 4 7 2 e C y 3 1 1 1 4 3 1 3 s 3 3 2 3 e 4 : v 2 2 3 1 3 r r 4 4 3 3 3 ",
"4 e 4 4 f 4 3 3 3 4 y 4 7 < ~ 7 2 4 4 7 a r 4 4 4 7 y i r r y 3 y l 3 3 1 1 4 y 4 e s v s e 3 4 e e , v 2 2 1 2 3 4 7 4 3 3 3 4 ",
"3 1 < 1 1 < : ; > < : > > = 7 < < 4 4 2 3 2 2 1 < < 1 3 < 2 4 , ; 2 < < 1 1 1 1 2 2 2 3 1 < < , < , & 3 2 < 1 1 1 < 3 3 1 < 3 3 ",
"2 1 3 2 < < < > > : , : : ; ; , > % % , : : : : - - # + = ; : ; : : : : , , < : , < , : < * $ = = = * - : : : > > : > $ * : ; : ",
"#.%.&.#.@.@.#.@.+.O.O.O.+.O.O.o.O.- ; %.( ( ' [ ( ] 1 $ W C T T K M M A J U U U ( [ ( E ~ > e ~ C b A I A I U J J K T * s o.~ ] ",
"a b b b a 7 f f a 7 4 y f b b f A = = %.b a b b r 7 - @ T 2 2 7 3 , < 1 2 < 3 7 0 0 4 4 2 + s A 4 4 4 5 4 4 4 4 3 3 e % A _ y v ",
"1 1 4 4 4 < 1 1 2 2 3 3 3 3 3 7 l * , %.r 0 r 3 < < = $ D 2 , 1 2 2 2 2 2 2 2 3 7 4 4 3 2 @ v K e s 4 4 r 7 4 y y e y % M ~ 2 3 ",
"4 3 r i 7 4 4 3 2 < 3 4 r i i r l * > #.i 3 r < < 3 = % C < < , 3 3 2 2 3 3 3 3 2 2 1 4 4 + f G s f 4 e 7 y 4 4 7 y 7 & A T 2 4 ",
"3 3 3 4 7 7 7 2 < 1 2 4 0 i a b b * , %.7 < < < , 2 * $ A < > 1 3 1 < < 3 3 3 3 < 1 1 e 4 @ v A 4 4 4 4 4 4 4 3 3 7 4 % N U < 2 ",
"< 2 3 4 y r 4 3 3 1 2 4 4 5 a a l = - %.i < , < , < = $ J < , < < < < 2 3 3 3 3 2 2 2 4 1 + a A 4 4 4 4 4 4 y 4 3 4 3 $ A K , 1 ",
"< < 1 2 3 4 3 3 2 < 2 3 7 7 e e h = ; #.a 2 < 1 1 3 : * T 3 < < 1 < 2 3 7 r 3 3 2 4 7 4 2 @ a U f 4 y y f 4 y 4 4 3 4 $ M A < 2 ",
", : : > , , > > > : : , < < 1 1 2 * % A 1 , : , : > * & C < : > ; , 1 2 < 2 2 2 < , ; 1 , + ; , - : - - = = = - = : = O 3 r , < ",
"$ @ $ @ @ @ @ @ @ @ + O + + @ @ @ o O $ # @ @ + % @ @ + % O o o X X @ $ $ $ @ O @ X + . X X - - # + X O O O o o o o     @ % $ % ",
"' ( ( ( / ` [ [ ) ~ ) W A $ K f 2 4 v v A M M M A A K D b b A , ; W v N U U W W Q U ) W | | o.o.o.2 O $ = * & & % @ @ @ @ @ $ % ",
"( ( W U ` K U ( ) P K ~ A * o. .D D T ~ o.] X.........o.X.] ..y ; X.2 6 v d q q d d v v N v v v A 3 # % : - : : = = = = * = = = ",
": , , : > > , > : : : , < * ) C < 1 1 4 3 4 5 4 3 1 2 3 4 2 3 - ; W 2 2 3 2 2 1 3 6 2 6 3 3 q q e 1 # % : = = : ; ; : : : : ; = ",
"< 1 1 1 < 1 1 , < < < < 2 * ~ v , < < < 2 4 4 3 3 3 1 4 2 < < % ; ) 1 2 2 2 q q d d 6 6 q q q q e < # % : - : : ; ; ; : : : - * ",
"< < 1 1 3 3 1 > < < < 1 1 = T v , < , , 1 4 7 e y y 4 3 2 2 3 % - K < 1 2 1 6 6 d d d 6 6 q 6 s 4 1 % & = - : - ; ; - - : - - * ",
"3 < 1 0 0 0 1 < , < 1 4 4 = T M < < 1 , 1 4 4 3 4 4 4 4 2 1 2 % - U < < , 1 2 6 d 6 6 d 6 6 2 3 4 , @ % - - - : ; - - : : : - = ",
"i 7 3 4 y 4 2 < < < 3 4 4 - ~ K 1 < < < < 3 4 4 4 3 4 4 3 2 3 * ; Q 1 < 1 1 1 3 5 6 6 6 3 2 2 5 5 : O # - * = = * - = : : : - = ",
"a i f r y e 4 2 3 3 7 7 4 - M s 1 < < , 1 2 1 4 4 1 3 < 2 2 3 = ; A : ; : , ; ; > ; > ; ; ; ; - 1 - O * > - - - * - ; ; ; ; - = ",
"= = : : = = = = = = = = * @ $ $ @ O + + @ @ @ @ + o o   O + +   # > $ $ $ $ % $ # O + + + X + O @ o   ; 4 1 1 1 2 r 7 r y y r y ",
"b f b b l v D C M C A A K K A M A < o 3 1 1 7 7 y 7 r y 7 e v v v s s s $ < a 7 5 e 2 5 s 6 v v s s s C M k M * i b b b D D D K ",
" .b C b f b b A C C C A A M M K A < # _ v M I T ~ T K T ~ T ( ~ ^ ` X.} = T U v M v M s C A K A M v M b b M f - ..A A C C I T E ",
"~ < < < < < < 1 3 3 2 3 2 4 4 4 4 ; @ ~ < , < 2 2 > : , , < < 1 2 3 2 4 $ v l 2 2 1 1 1 1 1 2 < , , , > < 1 > & ( 2 2 2 < 3 4 y ",
"~ < < < < < 1 3 4 3 3 3 3 4 4 7 y : @ ( 2 < , 1 1 < , 1 1 < < 2 4 q e 7 * J v 2 3 1 1 1 2 4 3 < < 1 < 1 1 3 1 - I 1 1 3 < 3 3 3 ",
"A , , < < 1 3 3 2 3 3 3 1 2 2 4 e > % _ e 2 , , , , < < < 1 < 2 3 2 4 0 $ B v 2 < < < 1 1 2 3 1 3 3 < 1 1 3 1 * P 4 1 2 2 1 1 < ",
"A < < < < 1 4 4 3 4 2 2 1 2 2 2 5 ; # _ e 1 1 , , < < 1 1 1 1 1 3 e q q & v v 2 1 < < < < 2 3 4 3 3 1 2 3 4 2 * K 4 1 1 1 1 1 1 ",
"M > < 1 1 2 1 1 3 4 2 < , 2 2 2 4 ; @ E 4 1 1 1 < < < 1 1 2 1 2 2 3 q q & N v 2 < < < < 1 3 4 4 y 4 2 2 3 5 1 = K 5 2 4 4 2 2 2 ",
"j < 2 4 4 4 3 2 4 3 2 < 2 e d q s , @ T 4 3 4 4 2 2 2 3 4 4 2 3 q s s d * v v 4 3 3 3 3 7 e y a a y 3 3 3 5 4 * v 4 1 1 < 1 1 < ",
": ; : > < > > - ; ; * * = ; ; : ; & . > = - - < , : , , : > , , ; ; ; 2 $ * : : - ; : : : : > > : : - = - - - O & % % # # # % % ",
"o X o o O o .   + % % % * = % * & & = ; ; ; ; : ; ; = + : < < < 2 1 2 3 < < 1 < < 3 3 4 4 - = > < < > , < < 1 1 1 1 1 1 2 1 1 : ",
"& % % & * * * % 3 _ _ T ~ _ X._  .]  .X.......] X. .A * E _ T _ .. .X. . ._ Q _ ..+.+.+.+.5 C ~ _ ] ( ..] ( _ { ..{ _ ..o. .O.v ",
"- - - - - - : : 7 _ U s v f f e k b v v C v v b A v < & I b 4 y s e s s e 4 2 4 y s s s e - M C s f f y 3 2 1 1 1 1 4 1 1 1 1 > ",
"- - - - = ; , : s  .J 4 3 3 1 2 3 e 2 1 3 4 4 e e s : & T b 4 4 4 4 4 4 4 4 4 4 4 e s y 5 - M C y v b s y 2 1 3 4 3 3 3 1 1 1 > ",
"- - ; ; - > > > M X.K 4 3 1 2 4 e 2 1 1 3 y e e i v < = ~ M 7 e 4 3 4 3 3 4 4 7 4 e y y s - D D y f b v r 4 < 3 1 1 < < 1 < 1 : ",
"- - ; - > , , : v +.T 4 6 3 2 2 e 2 < 1 2 2 4 y e l < - _ M y e 4 3 1 4 3 4 4 4 y y y y 4 = b C e f f l 4 3 1 3 1 1 1 < < 1 3 : ",
"- > > > > , < : f +.E 4 4 2 4 4 3 2 < < 1 < 3 4 7 7 < : _ A e s 4 4 1 1 e 1 4 4 y y e 3 3 * f b y f s y r 4 1 < 1 1 1 1 3 3 3 1 ",
"- - - ; ; : : : s _ A 4 6 4 2 2 4 1 < < 1 < 3 4 4 3 < :  .K a l f e 4 3 4 7 4 y s 4 3 3 1 % 7 b 4 f y f f y 3 3 1 1 1 1 4 4 y 3 ",
"1 , > , 1 2 5 1 C K 1 - ; = * * * = = * & & & * * * % @ > : : > , > : , - : = : : - * @ % + % * = = ; > , < < < : = ; , < : , = ",
"5 6 6 6 v s k s f 1 - - - * = * = & % , , : > : > < < 3 4 3 4 4 4 4 4 4 * * < < < 1 < , < < , < < 3 3 4 2 7 > # < < , 2 < < 3 < ",
"{ Z L { { ..Z N A A I E T T ~ T _ b < X.J A D I W ] ..[ +.O.+.+.O.+.O.+.< C &._ .. .........X.+.@.#.#.#.$.&.v @ X.#.] X.X.@.@.+.",
"..j s 6 5 5 1 , < , , > < 1 2 1 7 1 7 ( 2 1 < < 3 e e 7 r y y 7 y f y f * P  .3 e y v s e 4 4 r r 4 4 7 s b : @ X.+.f a a a r r ",
"{ 4 6 6 6 1 ; 1 - 1 > , , 6 6 6 d 1 5 ) 1 3 < < 1 4 4 e s b 7 4 3 3 e e * ~ ] 1 4 2 4 s 5 4 4 3 3 1 < 1 3 4 * # O.X.e y e e 3 < ",
"L 1 1 4 1 1 1 1 , , 1 1 6 6 q d v 1 1 W 3 1 < 1 1 e 4 a f 7 3 3 1 3 4 7 & ~ ] 1 2 3 3 e e 4 y e y e 3 3 3 4 * % X. .e f y y 4 2 ",
"{ 1 2 1 1 1 1 1 1 1 1 1 e q s q j 3 3 L 1 , 1 < 1 3 3 7 4 3 2 2 3 3 4 7 = K ( < 3 3 4 e y s a e y y 4 3 4 3 % @  . .e y s s 7 2 ",
"Z 2 1 1 1 1 ; 1 , 1 1 6 e s q s v 1 4 W , 1 , 1 2 2 1 1 3 3 3 2 2 4 7 4 = A ( 3 7 7 4 s f s s y f e 4 3 3 3 & + _  .e f f s 4 1 ",
"..1 1 2 1 1 1 2 < < 2 2 e 6 6 6 s 1 3 Z , < 1 2 2 3 2 2 3 e 7 4 3 3 4 7 = A ~ 7 s s v s s s e f f s 4 3 4 7 ; + ] [ e v f e e 2 ",
"v 1 1 - 1 1 2 - 1 s ; ; 6 6 e 1 3 > 1 j ; > < 1 < < < 1 3 1 2 2 1 3 3 3 = s 7 * = = = = ; - = - : : = & = = % + v f ; : > ; ; - ",
"- - # - - + # # - O X ; $ ; - - $ $ & $ @ @ # $ $ $ $ # % & % @ + % % % $ ; ; % % % * * * * = * * $ @ # % % # # : & $ + + $ # @ ",
"..{  .{  .{ { { | | { | s X N { W ) ) Q W T Q W ( ( ( ( ] ( ] * = W K I K ~ ~ ~ ~ _ _  . . ...]  .4 o b ( ~ ( ( ~ E ~ = 7 D l l ",
"| v N Z Z v v N s v Z | 1 + | 6 q 6 3 6 6 3 6 6 s y f b s s s # < ] e l l v y 4 4 y s v f f s y v 2 & o.) A L T U I M % T K 3 2 ",
"; 1 3 1 1 3 ; - - s 2 1 - - | 2 2 3 3 6 2 1 , 1 1 3 4 4 4 4 5 @ < T 2 e e r 4 4 4 e s s e y y y s , - o.v 6 s 6 7 7 4 $ J A 3 2 ",
"6 2 3 3 3 - 2 6 e s 6 1 - @ Z < 2 q 6 6 6 3 1 1 1 3 4 4 5 4 4 @ : J 2 e s y f e e e 5 s s s e 4 s 1 * X.L 6 s v v y s $ A A 4 4 ",
"2 2 3 6 ; 6 2 2 s e 6 < - @ | 1 1 6 6 2 2 6 1 2 1 3 4 1 4 1 1 # > b < 4 e y f i 5 4 4 e y 4 3 4 d 1 * X.N 6 s s s v s % M A e e ",
"6 6 2 2 2 1 1 6 s 6 3 s - - Z 1 2 s s 2 5 3 1 3 1 < 1 1 , , 1 $ : v 1 4 3 4 e e 4 4 4 4 5 1 1 4 6 2 - X.v 5 j j s s e $ M A e e ",
"e e 6 6 6 6 6 6 6 3 1 ; - - { s d j s s 5 5 1 1 1 < < 1 < > , $ : y > 1 2 2 4 4 1 1 1 1 2 1 1 4 q , * ..Z 5 5 6 2 5 e $ v M 5 s ",
"v v e e 6 1 s 1 1 1 ; ; - ; { 1 j j j s s 5 3 1 1 1 1 < < < , % = 7 > 1 4 4 4 a 4 < 1 2 6 1 2 6 e 2 * A s 3 2 < 2 4 2 @ s A s k ",
"1 ; ; - - - - - # - - - + X - - * * & * * # # @ @ @ @ @ @ + + o o # # % & & & * & # # @ # @ # $ & & X # & % % * * # @ X * > : ; "
};
